<?xml version="1.0" standalone="no"?>
<svg
  width="600"
  height="600"
  viewBox="0 0 600 600"
  xmlns="http://www.w3.org/2000/svg"
>
  <g transform="translate(300,300)">
    <path d="M121.5,-166.4C155.3,-142.8,178.9,-104.3,189.3,-63.6C199.7,-22.9,196.9,20.1,181.6,56.5C166.4,93,138.7,122.9,106.4,152.9C74.1,182.9,37,213,-1.8,215.4C-40.6,217.8,-81.1,192.6,-127.9,167.3C-174.6,142,-227.6,116.6,-250.8,74.6C-273.9,32.5,-267.2,-26.1,-239.3,-67.1C-211.3,-108.2,-162.1,-131.8,-118.7,-152.3C-75.2,-172.9,-37.6,-190.4,3.1,-194.8C43.9,-199.1,87.8,-190.1,121.5,-166.4Z" fill="#f78da7" />
  </g>
</svg>
  