<?xml version="1.0" standalone="no"?>
<svg
  width="600"
  height="600"
  viewBox="0 0 600 600"
  xmlns="http://www.w3.org/2000/svg"
>
  <g transform="translate(300,300)">
    <path d="M80.8,-122C106.3,-92.6,129.7,-71.2,143.8,-43.1C157.9,-15,162.6,19.7,161.1,61C159.6,102.3,151.8,150.3,123.9,155.2C96,160.1,48,122.1,-2,124.8C-51.9,127.5,-103.8,170.9,-140.8,168.9C-177.7,166.9,-199.7,119.5,-197.9,75.9C-196.2,32.2,-170.9,-7.5,-159.3,-54.4C-147.8,-101.4,-150,-155.5,-125.7,-185.2C-101.5,-215,-50.7,-220.5,-11.6,-204.6C27.6,-188.7,55.3,-151.4,80.8,-122Z" fill="#f78da7" />
  </g>
</svg>
  