<?xml version="1.0" encoding="utf-8"?>
<!-- Generator: Adobe Illustrator 22.0.1, SVG Export Plug-In . SVG Version: 6.00 Build 0)  -->
<svg version="1.1" id="Layer_1" xmlns="http://www.w3.org/2000/svg" xmlns:xlink="http://www.w3.org/1999/xlink" x="0px" y="0px"
	 viewBox="0 0 288 288" style="enable-background:new 0 0 288 288;" xml:space="preserve">
<style type="text/css">
	.st0{fill:#FF99C8;}
</style>
<g>
	<path class="st0" d="M143.2,6C67,6,5.3,67.7,5.3,143.8C5.3,220,67,281.7,143.2,281.7S281,220,281,143.8C281,67.7,219.3,6,143.2,6z
		 M122.5,226c-3.1,3.1-8.1,3.1-11.1,0l-2.5-2.5l0,0l-2.7-2.7l-11.5-11.5l-0.2-0.3l-52.9-53.3c-3.1-3.1-3.1-8.1,0-11.1L58.2,128
		c3.1-3.1,8-3.1,11.1,0l47.6,47.9l100-100c3.1-3.1,8-3.1,11.1,0l16.7,16.7c3.1,3.1,3.1,8.1,0,11.1L122.5,226z"/>
</g>
</svg>
