<?xml version="1.0" encoding="utf-8"?>
<!-- Generator: Adobe Illustrator 22.0.1, SVG Export Plug-In . SVG Version: 6.00 Build 0)  -->
<svg version="1.1" id="Layer_1" xmlns="http://www.w3.org/2000/svg" xmlns:xlink="http://www.w3.org/1999/xlink" x="0px" y="0px"
	 viewBox="0 0 288 288" style="enable-background:new 0 0 288 288;" xml:space="preserve">
<style type="text/css">
	.st0{fill:#BFDBF7;}
</style>
<g>
	<g>
		<g>
			<path class="st0" d="M143,6C66.8,6,5,67.8,5,144c0,76.2,61.8,138,138,138c76.2,0,138-61.8,138-138C281,67.8,219.2,6,143,6z
				 M199.1,205.8v9.5c0,5.3-4.3,9.5-9.5,9.5H180h-52.7H94.1c-10.5,0-19.1-8.5-19.1-19.1V85.7c0-10.5,8.5-19.1,19.1-19.1h33.2H180
				h9.5c5.3,0,9.5,4.3,9.5,9.5v9.5h0L199.1,205.8L199.1,205.8z M218.2,85.7v120.1v9.5c0,5.3-4.3,9.5-9.5,9.5H206
				c1.6-2.8,2.6-6.1,2.6-9.5v-9.5V85.7v-9.5c0-3.5-0.9-6.7-2.6-9.5h2.6c5.3,0,9.5,4.3,9.5,9.5V85.7z"/>
			<path class="st0" d="M166.5,158.3c0,0-3.6-4.3-7.6-1.3c-3,2.2-8.3,7.2-9.6,8.4c0,0-8.9-4.8-14.2-9.1c-7.8-6.4-13-14.4-15.8-18.9
				l-2-3.9c0.7-0.8,6.2-6.6,8.5-9.8c3-4-1.3-7.6-1.3-7.6s-12.1-12.1-14.9-14.5c-2.8-2.4-5.9-1.1-5.9-1.1c-5.8,3.8-11.8,7-12.2,22.7
				c0,14.7,11.1,29.8,23.2,41.6c12.1,13.3,28.7,26.5,44.7,26.5c15.7-0.4,19-6.4,22.7-12.2c0,0,1.3-3.2-1.1-5.9
				C178.7,170.4,166.5,158.3,166.5,158.3z"/>
		</g>
	</g>
</g>
</svg>
