<?xml version="1.0" encoding="utf-8"?>
<!-- Generator: Adobe Illustrator 22.0.1, SVG Export Plug-In . SVG Version: 6.00 Build 0)  -->
<svg version="1.1" id="Layer_1" xmlns="http://www.w3.org/2000/svg" xmlns:xlink="http://www.w3.org/1999/xlink" x="0px" y="0px"
	 viewBox="0 0 288 288" style="enable-background:new 0 0 288 288;" xml:space="preserve">
<style type="text/css">
	.st0{fill:#FF99C8;}
</style>
<g>
	<g>
		<g id="circle_6_">
			<g>
				<path class="st0" d="M142.5,6C66.6,6,5,67.6,5,143.5S66.6,281,142.5,281S280,219.4,280,143.5S218.4,6,142.5,6z M202.7,152.1
					h-8.6v51.6c0,4.7-3.9,8.6-8.6,8.6h-68.8c0,0,0,0,0,0H99.6c-4.7,0-8.6-3.9-8.6-8.6v-43c0,0,0,0,0,0v0h0v-8.6h-8.6
					c-4.7,0-8.6-3.9-8.6-8.6h-0.2c0-0.4,0.3-0.8,0.4-1.2c0.5-3.5,3-6.2,6.4-7l59.9-59.7c1.4-1.4,2.8-1.4,4.1,0l59.8,59.7
					c4,0.8,7,4.1,7,8.3C211.3,148.2,207.5,152.1,202.7,152.1z"/>
			</g>
		</g>
	</g>
</g>
</svg>
