<?xml version="1.0" encoding="utf-8"?>
<!-- Generator: Adobe Illustrator 22.0.1, SVG Export Plug-In . SVG Version: 6.00 Build 0)  -->
<svg version="1.1" id="Layer_1" xmlns="http://www.w3.org/2000/svg" xmlns:xlink="http://www.w3.org/1999/xlink" x="0px" y="0px"
	 viewBox="0 0 288 288" style="enable-background:new 0 0 288 288;" xml:space="preserve">
<style type="text/css">
	.st0{fill:#FF99C8;}
</style>
<g>
	<g>
		<path class="st0" d="M143.1,6C67,6,5.2,67.9,5.2,143.9S67,281.8,143.1,281.8S281,220,281,143.9S219.1,6,143.1,6z M166.1,230.1
			c0,3.2-2.6,5.7-5.7,5.7h-34.5c-3.2,0-5.7-2.6-5.7-5.7v-86.2h-5.7c-3.2,0-5.7-2.6-5.7-5.7v-23c0-3.2,2.6-5.7,5.7-5.7h46
			c3.2,0,5.7,2.6,5.7,5.7V230.1z M143.1,97.9c-12.7,0-23-10.3-23-23s10.3-23,23-23s23,10.3,23,23S155.8,97.9,143.1,97.9z"/>
	</g>
</g>
</svg>
