<?xml version="1.0" encoding="utf-8"?>
<!-- Generator: Adobe Illustrator 22.0.1, SVG Export Plug-In . SVG Version: 6.00 Build 0)  -->
<svg version="1.1" id="Layer_1" xmlns="http://www.w3.org/2000/svg" xmlns:xlink="http://www.w3.org/1999/xlink" x="0px" y="0px"
	 viewBox="0 0 288 288" style="enable-background:new 0 0 288 288;" xml:space="preserve">
<style type="text/css">
	.st0{fill:#BFDBF7;}
</style>
<g>
	<g>
		<path class="st0" d="M143.6,6C67.3,6,5.2,68.1,5.2,144.4s62.1,138.4,138.4,138.4S282,220.7,282,144.4S219.9,6,143.6,6z
			 M166.6,230.9c0,3.2-2.6,5.8-5.8,5.8h-34.6c-3.2,0-5.8-2.6-5.8-5.8v-86.5h-5.8c-3.2,0-5.8-2.6-5.8-5.8v-23.1
			c0-3.2,2.6-5.8,5.8-5.8h46.1c3.2,0,5.8,2.6,5.8,5.8V230.9z M143.6,98.3c-12.7,0-23.1-10.3-23.1-23.1s10.3-23.1,23.1-23.1
			s23.1,10.3,23.1,23.1S156.3,98.3,143.6,98.3z"/>
	</g>
</g>
</svg>
