<?xml version="1.0" encoding="utf-8"?>
<!-- Generator: Adobe Illustrator 22.0.1, SVG Export Plug-In . SVG Version: 6.00 Build 0)  -->
<svg version="1.1" id="Layer_1" xmlns="http://www.w3.org/2000/svg" xmlns:xlink="http://www.w3.org/1999/xlink" x="0px" y="0px"
	 viewBox="0 0 288 288" style="enable-background:new 0 0 288 288;" xml:space="preserve">
<style type="text/css">
	.st0{fill:#FF99C8;}
	.st1{fill:url(#bg-b_2_);}
</style>
<path id="bg-y_1_" class="st0" d="M75.2,28.6V10.7h4.3V5h13v5.5l4.1,0v18.3h16.7V10.5l4.3,0V5h13v5.5l4.3,0v18.3h16.5V10.5l4.3,0V5
	h13v5.5l4.1,0v18.3H190l0-18.1h4.3l0-5.7h12.8v5.5l4.3,0v18.1l41.1,0c0,0,7.5-1,7.5,6.3c0,5,0,57.6,0,57.6h18.7v4.3h5.3l0,13h-5.1
	l0,4.3H260v19.5h18.9l0,4.3h5.1l0,13h-5.1l0,4.3H260v19.3l18.7,0v4.3l5.1,0v13.2h-4.9l0,4.3h-18.7l-0.1,57.2c0,0,0.8,6.2-5.7,6.8
	c-3.8,0-42.8,0-42.8,0l0,18.5h-4.3l0,5.1h-13l0-5.1H190l-0.1-18.6l-16.7-0.1v18.5l-4.3,0v5.3h-12.8l0-5.1h-4.3l0-18.7h-16.5
	l-0.1,18.7h-4.5l0,5.1h-12.8l0-5.1h-4.3l-0.1-18.7H96.9v18.5l-4.3,0v5.3H79.8l-0.1-5.1h-4.3l-0.1-18.7l-40.2,0c0,0-6.3,0.6-6.7-6
	c0-2.1,0-57.9,0-57.9l-17.9,0v-4.3l-5.5,0v-13l5.5,0v-4.3l18.1,0.1l0-19.4H10.7l0-4.3H5.2l-0.1-13h5.6l0-4.3h17.9l0-19.5H10.7l0-4.3
	H5.2l-0.1-13h5.6l0-4.3h17.9l-0.1-57.3c0,0-0.3-6.3,5.5-6.6C36.1,28.6,75.2,28.6,75.2,28.6z"/>
<linearGradient id="bg-b_2_" gradientUnits="userSpaceOnUse" x1="30.8721" y1="144.4667" x2="257.9309" y2="144.4667">
	<stop  offset="0" style="stop-color:#BFE6FF"/>
	<stop  offset="1" style="stop-color:#F7BFFF"/>
</linearGradient>
<path id="bg-b_1_" class="st1" d="M41,31.2h213.1c0,0,3.1-0.5,3.7,3c0,3.1,0.1,219.3,0.1,219.3s0.2,5.5-4.7,4.2
	c-4.9,0.2-218.9,0.2-218.9,0.2s-4.1-0.4-3.3-5.4c-0.1-5.1-0.1-218.3-0.1-218.3s0.2-3.1,3.5-3S41,31.2,41,31.2z"/>
<g id="dragon_1_">
	<path id="body_1_" class="st0" d="M127.8,91.1c0,0,12.4-10.2,22-7.7c9.7,2.5,13.1,5.7,16.2,15.2c5.3-3.3,21.9-15.1,21.9-15.1
		s-9.5-10.6-18.9-12.8c-9.4-2.2-14.8,0.9-20.7,1.3c-5.9,0.4-21.3-0.8-20.1-15.5c5.2-7.3,6.9-11.7,20.8-11.7
		c-6.8-3-24.6-4.3-31.2-1.1c-6.6,3.2-20.2,8.1-14.4,29.5C98,64,92.9,60.8,102.1,47.8c-9.4,2.1-27.3,12.1-13.8,37.1
		c-1.2,0.9-2.6,2-2.6,2s-11.9-5.1-17.5-9.6c0,0-2.4,5.1,7.6,18.8c-5.4-2.9-10.2-5.8-12.5-9c-0.5,5.3,2.3,9.6,6,16.8
		c-6.1-2.6-11-4.7-15.9-8.6c-0.4,3.2,5.5,12.8,9.6,18.4c-5.9,5.2-11.1,11.6-14.5,12.8c2.9,1.4,7,1.1,8.6,0.7
		c-1.9,3.5-18.6,73.4,44.8,106.8c26,13.7,62,17.1,97.9-6.4c4.6,2.3,14.1,2,19.5-3.8c-2.9,0.6-8.2,1.8-12.4-1.8
		c1.3-1.2,3.3-3.1,3.3-3.1s8.5,3.8,17.4-5.9c-2.5,1-7.3,3.2-11.7-0.2l3.3-4.1c0,0,8.9,1.6,15.1-7.4c0,0-6.5,3.8-10.8,1.1
		c1.2-2.1,2-3.4,2-3.4S236,198.7,240,188c-1.3,1.1-6.5,5.6-10.9,3.5c1-2.7,4.1-11.3,4.3-15.2c-1.8,2-19.2,20.9-41.8,33
		c-4,2.7-5.3,3-4.5,7.5c0,2.3,3.1,5.6-4.4,9.5c-8.4,2.9-57.8,18.2-87.2-31.9c-4.7-10.9-13.1-27.4-4.9-53.4
		c2.6-6.6,15.1-31.7,35.2-41c3.4-0.8,10.8-1.2,16,5.2c1.5,3.6,4.5,6.2,7.2,5.3c2.7-0.8,9.8-4.8,9.8-4.8S153.1,91.3,127.8,91.1z"/>
	<path id="eye_1_" class="st0" d="M121.4,65.5l13,8.9C134.5,74.4,120.5,83.9,121.4,65.5z"/>
	<path id="nose_1_" class="st0" d="M164.3,74.4l5,6.9c0,0,12.1-2.3,5.3-6.6C171.4,73.1,170.2,72.6,164.3,74.4z"/>
</g>
<g id="breath_1_">
	<path id="XMLID_3_" class="st0" d="M187.7,103.8l3.4,5.6l15.4-10.1c0,0,3.9-3.9,9,0c4,1.9,13.7,6.4,13.7,6.4s2.5,0.7,2.2,3.1
		s4.3,7.1,7.3,6.5c3-0.6,7.7-1.5,7.1-9.7c-1-2.5-4.9-8-10.5-5.2c-0.7,0.5-1,2-5.4-0.1c-4.4-2.1-17.6-8.4-17.6-8.4s-4.9-2.3-9.7,1.2
		S187.7,103.8,187.7,103.8z"/>
	<path id="XMLID_2_" class="st0" d="M176.9,106.8l-2.3,4.4l17,10.8c0,0,5.1,2.7,10,0.2s6.2-3.2,6.2-3.2s2.7-3.3,10.3,2.8
		c7.8,4.9,11.1,6.9,11.1,6.9s1.4,0.5,1.4,2c0,0-0.3,7.6,6.8,8.5c7.1,0.9,13.1-12.6,0.7-15.7c-2.4,0.6-3.3,0.8-3.3,0.8
		s-2.2,1.4-4.4-0.9c-1.9-1.2-17.3-10.9-17.3-10.9s-3.2-2.9-10.3,1c-5.3,2.8-6,3.1-6,3.1s-3.1,0.9-6.7-1.4
		C186.3,112.7,176.9,106.8,176.9,106.8z"/>
	<path id="XMLID_1_" class="st0" d="M164.6,108.9l-3.1,3.9l13.2,8.7c0,0,4.4,1.1,3.8,8.5c-0.6,7.4-3.4,20.5-3.5,21.1
		c-0.1,0.6-1.9,5.8,3.4,10.2s14.6,12.2,14.6,12.2s1.5,0.1,1.1,2.8s1.6,8,8.9,7.5c7.3-0.5,9.2-13.5-2.4-13.6c0,0-2.4,1.3-3.7,0.3
		c-1.2-1.1-14-12-14-12s-2.4-1.7-0.8-7.5c0.7-3.7,1-6.2,1-6.2l16.2,10.5c0,0,3,1.6,2.2,3.4c-0.7,1.8,2.3,10.5,11.9,6
		c9.6-4.5,0.1-16.7-6.3-13c-1.4,0.6-2.7,1.9-5-0.7c-2.2-1.5-15-10-15-10s-2.5-0.9-1.3-9.3s-2.2-10.2-5.3-12.2
		S164.6,108.9,164.6,108.9z"/>
</g>
</svg>
