<?xml version="1.0" encoding="UTF-8"?>
<svg width="219px" height="62px" viewBox="0 0 219 62" version="1.1" xmlns="http://www.w3.org/2000/svg" xmlns:xlink="http://www.w3.org/1999/xlink">
    <!-- Generator: Sketch 48.1 (47250) - http://www.bohemiancoding.com/sketch -->
    <title>Logo@2x</title>
    <desc>Created with Sketch.</desc>
    <defs>
        <polygon id="path-1" points="0 60.5617978 218.990225 60.5617978 218.990225 0.0642696629 0 0.0642696629"></polygon>
    </defs>
    <g id="Navigation/Header/Blank-center" stroke="none" stroke-width="1" fill="none" fill-rule="evenodd" transform="translate(-523.000000, -35.000000)">
        <g id="UK-Retail-Navigation" transform="translate(523.000000, 34.000000)">
            <g id="Logo" transform="translate(0.000000, 0.614525)">
                <polyline id="Stroke-1" stroke="#000000" stroke-width="0.23" points="55.6167416 47.4213708 64.4291011 42.1178876 64.6762921 41.9831685 73.9447191 38.3593483"></polyline>
                <polyline id="Stroke-2" stroke="#000000" stroke-width="0.23" points="55.6667978 47.5191348 66.9844382 46.1818315 75.3753371 38.0838539"></polyline>
                <path d="M60.3771461,49.3839438 L64.9872584,44.2448427" id="Stroke-3" stroke="#000000" stroke-width="0.23"></path>
                <path d="M60.2274719,49.5299101 L75.0527528,38.2530562" id="Stroke-4" stroke="#000000" stroke-width="0.23"></path>
                <polyline id="Stroke-5" stroke="#000000" stroke-width="0.23" points="60.3457528 48.5945393 66.9185618 50.1493708 81.8105843 34.7024045"></polyline>
                <path d="M60.3771461,48.3000112 L66.9202921,48.8883258" id="Stroke-6" stroke="#000000" stroke-width="0.23"></path>
                <path d="M66.9521798,48.7297528 L75.6458876,37.9299775" id="Stroke-7" stroke="#000000" stroke-width="0.23"></path>
                <path d="M53.0344607,6.45020225 L81.7456966,34.5854831" id="Stroke-8" stroke="#000000" stroke-width="0.23"></path>
                <path d="M53.0344607,6.45020225 L56.1441236,10.5164944" id="Stroke-9" stroke="#000000" stroke-width="0.23"></path>
                <path d="M80.6485393,35.1246067 L53.1164045,11.3992135" id="Stroke-10" stroke="#000000" stroke-width="0.23"></path>
                <path d="M53.2540899,11.8206742 L56.4861124,15.5841573 M56.7827416,15.9289888 L75.5000449,37.6953933" id="Stroke-11" stroke="#000000" stroke-width="0.23"></path>
                <path d="M52.7145955,18.4193146 L74.0929101,38.4813371" id="Stroke-12" stroke="#000000" stroke-width="0.23"></path>
                <path d="M52.6595955,18.5225169 L58.8381348,26.4758876" id="Stroke-13" stroke="#000000" stroke-width="0.23"></path>
                <path d="M52.5975506,18.6812135 L57.1260899,26.7643596 M57.7490112,27.8754831 L65.9829438,42.5697528" id="Stroke-14" stroke="#000000" stroke-width="0.23"></path>
                <path d="M52.6639213,27.8537303 L61.6184157,34.8158652" id="Stroke-15" stroke="#000000" stroke-width="0.23"></path>
                <path d="M52.4110449,33.0726742 L54.6345281,35.0452584 M56.2696966,36.4975056 L64.9868876,44.2444719" id="Stroke-16" stroke="#000000" stroke-width="0.23"></path>
                <g id="Group-322" transform="translate(0.000000, 1.171315)">
                    <path d="M31.7201685,30.3902809 L61.1643258,34.4639888 C59.673764,35.6480337 57.1375843,36.135 57.1375843,36.135 C47.7702809,38.1903933 40.2692697,35.7642135 31.7201685,30.3902809 Z" id="Stroke-17" stroke="#000000" stroke-width="0.23"></path>
                    <path d="M49.9089775,31.5054831 L50.5751573,27.8421124" id="Stroke-21" stroke="#000000" stroke-width="0.23"></path>
                    <path d="M51.2232921,25.7301124 L51.9611573,20.4130337" id="Stroke-23" stroke="#000000" stroke-width="0.23"></path>
                    <path d="M52.383236,21.9243596 L51.7726742,21.9243596 M52.519191,23.0490787 L51.640427,23.0490787" id="Stroke-29" stroke="#000000" stroke-width="0.23"></path>
                    <path d="M52.6373483,24.3794607 L51.4483596,24.3794607" id="Stroke-33" stroke="#000000" stroke-width="0.23"></path>
                    <path d="M51.001191,28.2586292 L50.5031011,28.2586292" id="Stroke-35" stroke="#000000" stroke-width="0.23"></path>
                    <path d="M51.0055169,29.3015281 L50.3010225,29.3015281" id="Stroke-37" stroke="#000000" stroke-width="0.23"></path>
                    <path d="M50.9596629,30.4650562 L50.0722472,30.4650562" id="Stroke-39" stroke="#000000" stroke-width="0.23"></path>
                    <path d="M52.0591685,17.9648539 L50.4857978,25.6586742 M50.2497303,26.6462022 L48.8320899,33.3586742 M48.4291685,35.2719326 L47.7605169,38.423618" id="Stroke-41" stroke="#000000" stroke-width="0.23"></path>
                    <path d="M49.4671236,35.3847753 L47.6119551,39.8094944 M47.6119551,39.8094944 L44.4837528,47.2635393" id="Stroke-43" stroke="#000000" stroke-width="0.23"></path>
                    <path d="M49.1086966,38.016 L46.0373483,47.2856629" id="Stroke-45" stroke="#000000" stroke-width="0.23"></path>
                    <path d="M50.0833708,36.85 L47.4853933,47.4755056" id="Stroke-47" stroke="#000000" stroke-width="0.23"></path>
                    <path d="M50.2843371,38.8366742 L49.295573,45.7036404" id="Stroke-49" stroke="#000000" stroke-width="0.23"></path>
                    <path d="M51.7223708,37.9664382 L48.3976517,37.9664382 M51.2304607,39.2011573 L47.9069775,39.2011573" id="Stroke-57" stroke="#000000" stroke-width="0.23"></path>
                    <path d="M51.1315843,40.4854382 L47.3297865,40.4706067" id="Stroke-59" stroke="#000000" stroke-width="0.23"></path>
                    <path d="M51.2100674,41.7768876 L46.8063596,41.7768876" id="Stroke-61" stroke="#000000" stroke-width="0.23"></path>
                    <path d="M46.2788539,43.069573 L50.7826742,43.069573" id="Stroke-63" stroke="#000000" stroke-width="0.23"></path>
                    <path d="M45.7182247,44.3913034 L50.7547416,44.3913034" id="Stroke-65" stroke="#000000" stroke-width="0.23"></path>
                    <path d="M45.1896067,45.6525955 L50.6661236,45.6525955" id="Stroke-67" stroke="#000000" stroke-width="0.23"></path>
                    <path d="M52.5823483,10.7948315 L51.7727978,14.4458427 M51.6096517,15.1837079 L49.2712247,25.738764 M49.0623483,26.6731461 L47.5952697,33.2867416 M47.1404382,35.3396629 L45.1221236,44.4449438" id="Stroke-69" stroke="#000000" stroke-width="0.23"></path>
                    <path d="M52.9553596,5.31930337 L51.9789551,9.45604494 M51.8195169,10.1345843 L50.8047978,14.4270562 M50.6169326,15.2366067 L48.1709775,25.5926742 M47.9200787,26.6654831 L46.1897416,34.0033483 M45.8708652,35.3554831 L45.0341236,39.1721124" id="Stroke-71" stroke="#000000" stroke-width="0.23"></path>
                    <path d="M41.4678989,33.5718764 L51.1380112,26.6628876" id="Stroke-73" stroke="#000000" stroke-width="0.23"></path>
                    <path d="M46.3713034,25.3378202 L52.2161348,17.3560225" id="Stroke-75" stroke="#000000" stroke-width="0.23"></path>
                    <path d="M52.8799663,10.1394045 L48.734573,14.3663708" id="Stroke-77" stroke="#000000" stroke-width="0.23"></path>
                    <path d="M49.961382,9.35791011 L52.9350899,5.28173034" id="Stroke-79" stroke="#000000" stroke-width="0.23"></path>
                    <path d="M51.2667978,31.7637978 C51.2667978,31.7637978 49.0890449,32.8811011 39.6982584,32.7982921" id="Stroke-81" stroke="#000000" stroke-width="0.23"></path>
                    <path d="M58.8847303,25.8241685 C58.8254045,25.9514719 58.4175393,26.2814719 57.7192247,26.7214719 M57.7192247,26.7214719 C56.4560787,27.5149551 54.2400112,28.6668652 51.3824831,29.6445056 M50.1625955,30.0091124 C45.1952921,31.5293371 38.6323708,32.4204607 31.806191,30.293382" id="Stroke-83" stroke="#000000" stroke-width="0.23"></path>
                    <path d="M46.1600787,25.7795506 C46.1600787,25.7795506 39.358618,32.0174157 31.8341236,30.0905618" id="Stroke-85" stroke="#000000" stroke-width="0.23"></path>
                    <path d="M35.6628652,33.944764 L51.2532022,47.3721798" id="Stroke-87" stroke="#000000" stroke-width="0.23"></path>
                    <path d="M31.5505955,30.658236 L34.1584607,32.7432921" id="Stroke-89" stroke="#000000" stroke-width="0.23"></path>
                    <path d="M44.6972022,37.9483933 L44.8492247,31.2074944" id="Stroke-91" stroke="#000000" stroke-width="0.23"></path>
                    <path d="M44.1328652,37.9459213 L44.3145506,35.3392921" id="Stroke-93" stroke="#000000" stroke-width="0.23"></path>
                    <path d="M33.5343034,14.8786742 L55.847,25.2483371" id="Stroke-95" stroke="#000000" stroke-width="0.23"></path>
                    <path d="M56.450764,15.0765506 C55.599191,15.4918315 43.8687416,19.6866629 31.9949213,13.8109326" id="Stroke-97" stroke="#000000" stroke-width="0.23"></path>
                    <path d="M48.7779551,14.3758876 C48.7779551,14.3758876 41.5352584,16.6784719 32.0616629,13.7640899" id="Stroke-99" stroke="#000000" stroke-width="0.23"></path>
                    <path d="M46.2541348,25.3003708 L32.803236,14.6501461" id="Stroke-101" stroke="#000000" stroke-width="0.23"></path>
                    <path d="M38.1842135,23.2521461 L31.9414045,13.8700112" id="Stroke-103" stroke="#000000" stroke-width="0.23"></path>
                    <path d="M52.8992472,9.31255056 L32.3168876,0.414910112" id="Stroke-105" stroke="#000000" stroke-width="0.23"></path>
                    <path d="M32.3285056,0.432831461 L35.3331124,4.45339326" id="Stroke-107" stroke="#000000" stroke-width="0.23"></path>
                    <path d="M32.4354157,5.29273034 C37.0035056,8.01430337 44.4563146,10.2019438 49.7560899,9.4764382" id="Stroke-109" stroke="#000000" stroke-width="0.23"></path>
                    <path d="M33.2133258,6.04048315 C37.3995056,8.9017191 45.9757978,13.1336292 55.4147865,10.0474494" id="Stroke-111" stroke="#000000" stroke-width="0.23"></path>
                    <path d="M32.2211011,5.20225843 L36.513573,10.2993371" id="Stroke-113" stroke="#000000" stroke-width="0.23"></path>
                    <path d="M19.3082135,10.6366292 L21.8097865,13.9996629" id="Stroke-115" stroke="#000000" stroke-width="0.23"></path>
                    <path d="M19.3082135,10.6366292 L31.5243933,13.418764" id="Stroke-117" stroke="#000000" stroke-width="0.23"></path>
                    <path d="M21.7650449,14.046382 C23.3161685,13.8993034 26.1947079,12.8895281 29.0139213,11.1109888 M30.1460562,10.3484045 C32.2830225,8.82570787 34.275382,6.84941573 35.4915618,4.46773034" id="Stroke-119" stroke="#000000" stroke-width="0.23"></path>
                    <path d="M15.6305056,18.3824831 L19.0701685,14.6523708 M19.6115169,14.0665281 L32.1675843,0.450011236" id="Stroke-121" stroke="#000000" stroke-width="0.23"></path>
                    <path d="M20.4583933,21.7168427 L22.2146854,19.0706629 M22.5867079,18.5107753 L27.9235618,10.4721236 L32.0776067,5.30830337" id="Stroke-123" stroke="#000000" stroke-width="0.23"></path>
                    <path d="M19.2743483,14.5207416 L22.6991798,18.3410787" id="Stroke-125" stroke="#000000" stroke-width="0.23"></path>
                    <path d="M19.5248764,14.6318539 L29.3099326,23.5591573" id="Stroke-127" stroke="#000000" stroke-width="0.23"></path>
                    <path d="M31.2712697,13.7356629 C30.3690225,14.3499326 26.1939663,15.0210562 21.9212697,14.0854382" id="Stroke-129" stroke="#000000" stroke-width="0.23"></path>
                    <path d="M30.888,14.2117528 C29.3962022,15.3377079 24.9442921,17.4623146 15.7228315,18.2866966" id="Stroke-131" stroke="#000000" stroke-width="0.23"></path>
                    <path d="M31.6049775,13.7524719 C31.1167753,14.6164045 28.3062135,17.1439326 23.5922809,18.3267416" id="Stroke-133" stroke="#000000" stroke-width="0.23"></path>
                    <path d="M31.1173933,14.7809101 L25.2849213,23.2064157" id="Stroke-135" stroke="#000000" stroke-width="0.23"></path>
                    <path d="M36.4836629,10.5551798 C34.4356854,13.601809 27.1064719,20.4996742 20.3977079,21.7479888" id="Stroke-137" stroke="#000000" stroke-width="0.23"></path>
                    <path d="M32.2265393,0.501550562 L31.1512584,4.52829213 M30.9596854,5.24514607 L29.5853034,10.3916629 M29.402382,11.0689663 L26.1184494,23.4915506 M25.9033933,24.3072809 L23.7540674,32.4349213 M23.2201348,34.4421124 L19.7656404,45.9241348" id="Stroke-139" stroke="#000000" stroke-width="0.23"></path>
                    <path d="M32.0781011,5.30780899 L30.844618,10.4296067 M30.6963034,11.0500562 L27.764618,23.4763483 M27.487764,24.6492697 L25.6227079,32.5581461 M25.3038315,33.9028652 L24.5770899,36.9902809 M23.6970899,40.9811798 L22.4154045,45.923764" id="Stroke-141" stroke="#000000" stroke-width="0.23"></path>
                    <path d="M25.3913371,23.8701236 L19.8950449,33.7243933 M19.3475169,34.7020337 L18.4143708,36.3829326" id="Stroke-145" stroke="#000000" stroke-width="0.23"></path>
                    <path d="M30.503618,29.4560225 L19.0388989,20.7005169" id="Stroke-147" stroke="#000000" stroke-width="0.23"></path>
                    <path d="M31.9495618,24.9346517 L40.057427,32.2502697" id="Stroke-149" stroke="#000000" stroke-width="0.23"></path>
                    <path d="M20.8519213,34.9079438 L18.0895618,36.6036742" id="Stroke-151" stroke="#000000" stroke-width="0.23"></path>
                    <path d="M38.2047303,23.8845843 L30.7445056,28.8234607 M29.4541685,29.6762697 L24.8403483,32.7266067" id="Stroke-153" stroke="#000000" stroke-width="0.23"></path>
                    <path d="M24.9171011,43.5439326 L27.0627191,33.8676404 M27.7437303,30.7938202 L29.0439551,24.9119101 M29.2997978,23.7550562 L31.492382,13.8340449" id="Stroke-155" stroke="#000000" stroke-width="0.23"></path>
                    <path d="M31.1704157,17.2099326 L29.9937865,23.717236 M29.6563708,26.0037528 L28.9580562,29.463191" id="Stroke-159" stroke="#000000" stroke-width="0.23"></path>
                    <path d="M31.5941011,19.1526067 L30.8747753,19.1526067" id="Stroke-163" stroke="#000000" stroke-width="0.23"></path>
                    <path d="M31.5941011,20.2600225 L30.6189326,20.2600225" id="Stroke-165" stroke="#000000" stroke-width="0.23"></path>
                    <path d="M31.612764,21.406618 L30.4410787,21.406618" id="Stroke-167" stroke="#000000" stroke-width="0.23"></path>
                    <path d="M31.6110337,22.6075955 L30.226764,22.6075955" id="Stroke-169" stroke="#000000" stroke-width="0.23"></path>
                    <path d="M30.6055843,28.1210674 L29.2188427,28.1173596 M30.5672697,26.9914045 L29.4870449,26.9889326" id="Stroke-173" stroke="#000000" stroke-width="0.23"></path>
                    <path d="M29.9683258,29.7723034 L29.0500112,32.4852247 M28.6112472,33.7842135 L24.4460787,46.1005056" id="Stroke-177" stroke="#000000" stroke-width="0.23"></path>
                    <path d="M28.8403933,34.9924831 L26.1472472,47.0047303" id="Stroke-179" stroke="#000000" stroke-width="0.23"></path>
                    <path d="M29.6526629,33.8760449 L28.3450225,44.8451461" id="Stroke-181" stroke="#000000" stroke-width="0.23"></path>
                    <path d="M27.5917079,36.8717528 L30.0673258,36.8717528" id="Stroke-189" stroke="#000000" stroke-width="0.23"></path>
                    <path d="M27.1523258,38.1221685 L30.0926629,38.1221685" id="Stroke-191" stroke="#000000" stroke-width="0.23"></path>
                    <path d="M26.7172697,39.3786404 L30.1136742,39.3786404" id="Stroke-193" stroke="#000000" stroke-width="0.23"></path>
                    <path d="M30.2042697,40.6302921 L26.3134831,40.6302921" id="Stroke-195" stroke="#000000" stroke-width="0.23"></path>
                    <path d="M25.8277528,41.886764 L30.2141573,41.886764" id="Stroke-197" stroke="#000000" stroke-width="0.23"></path>
                    <path d="M25.4059213,43.1287753 L30.2125506,43.1287753" id="Stroke-199" stroke="#000000" stroke-width="0.23"></path>
                    <path d="M24.9755618,44.5361573 L30.2827528,44.5361573" id="Stroke-201" stroke="#000000" stroke-width="0.23"></path>
                    <path d="M24.308764,34.3177753 C25.0194382,34.8072135 26.3530337,35.4078876 27.8868539,35.7922697 M30.661573,36.2532809 C34.5931461,36.8020449 39.6135955,36.7365393 44.2447191,35.343618 M47.8598876,33.9296854 C48.9141573,33.3982247 50.0957303,32.6838427 51.0375281,31.9632809" id="Stroke-203" stroke="#000000" stroke-width="0.23"></path>
                    <path d="M39.1274944,33.265236 C37.651764,34.3244494 27.6022135,41.4892809 8.74895506,44.8646742" id="Stroke-205" stroke="#000000" stroke-width="0.23"></path>
                    <path d="M23.0552584,34.556809 C20.123573,38.1744494 13.2751461,43.466809 8.7478427,44.9499551" id="Stroke-207" stroke="#000000" stroke-width="0.23"></path>
                    <path d="M21.038427,32.0751348 L30.0497753,25.1352472" id="Stroke-209" stroke="#000000" stroke-width="0.23"></path>
                    <path d="M24.7178652,32.4975843 L24.8451685,29.287809" id="Stroke-211" stroke="#000000" stroke-width="0.23"></path>
                    <path d="M23.6671798,32.4312135 L19.0175169,28.0979551" id="Stroke-215" stroke="#000000" stroke-width="0.23"></path>
                    <path d="M23.4040449,27.3981573 L18.9644944,20.5682697" id="Stroke-217" stroke="#000000" stroke-width="0.23"></path>
                    <path d="M20.652191,34.6472809 L30.8043258,46.4939101" id="Stroke-219" stroke="#000000" stroke-width="0.23"></path>
                    <path d="M18.8713034,32.6267416 L19.8835506,33.6637079" id="Stroke-221" stroke="#000000" stroke-width="0.23"></path>
                    <path d="M23.8911348,27.4584719 C25.9094494,26.8615056 27.6323708,26.1063371 28.9523708,25.3981348" id="Stroke-223" stroke="#000000" stroke-width="0.23"></path>
                    <path d="M30.1758427,24.6208427 C30.1758427,24.6208427 29.7519101,24.7345506 29.0189888,24.9236517 M29.0189888,24.9236517 C27.0822472,25.4266854 22.9998876,26.4772472 18.9978652,27.3980337" id="Stroke-225" stroke="#000000" stroke-width="0.23"></path>
                    <path d="M19.2399888,10.5986854 L16.7384157,14.0296966" id="Stroke-227" stroke="#000000" stroke-width="0.23"></path>
                    <path d="M19.2309663,10.6813708 L17.4586067,18.4839551 M17.312764,19.1303596 L13.9818652,33.7900225 M13.7717528,34.7157528 L11.4110787,45.1101348" id="Stroke-229" stroke="#000000" stroke-width="0.23"></path>
                    <path d="M19.1114494,14.5642472 L18.2833596,18.4846966 M18.1511124,19.1137978 L15.0575169,33.7746966 M14.8733596,34.643573 L12.6424607,45.2085169" id="Stroke-231" stroke="#000000" stroke-width="0.23"></path>
                    <path d="M18.7432584,20.6703596 L14.3457303,27.4162022" id="Stroke-233" stroke="#000000" stroke-width="0.23"></path>
                    <path d="M18.6799775,20.7367303 L17.2784045,27.4813371 M17.126382,28.2192022 L15.9794157,33.7365056 M15.7841348,34.6820112 L13.5915506,45.2383034" id="Stroke-235" stroke="#000000" stroke-width="0.23"></path>
                    <path d="M18.2743371,24.5967416 L17.0309663,31.652809" id="Stroke-237" stroke="#000000" stroke-width="0.23"></path>
                    <path d="M18.0999438,25.6528652 L18.9688202,25.6528652" id="Stroke-241" stroke="#000000" stroke-width="0.23"></path>
                    <path d="M17.9431011,26.6003483 L18.9689438,26.6003483" id="Stroke-243" stroke="#000000" stroke-width="0.23"></path>
                    <path d="M16.142809,28.1355281 L10.2955056,28.5186742" id="Stroke-245" stroke="#000000" stroke-width="0.23"></path>
                    <path d="M16.5290449,28.1597528 L12.3490449,29.8839101" id="Stroke-247" stroke="#000000" stroke-width="0.23"></path>
                    <path d="M17.595427,28.2562809 L11.8766629,33.779764" id="Stroke-249" stroke="#000000" stroke-width="0.23"></path>
                    <path d="M17.3872921,31.9641461 L17.1215618,33.2260562 M16.8051573,34.7376292 L14.9017865,43.7860562" id="Stroke-255" stroke="#000000" stroke-width="0.23"></path>
                    <path d="M17.0408539,36.509618 L16.2016404,43.935236" id="Stroke-257" stroke="#000000" stroke-width="0.23"></path>
                    <path d="M16.1205618,38.1366292 L17.7829213,38.1366292" id="Stroke-263" stroke="#000000" stroke-width="0.23"></path>
                    <path d="M15.8754719,39.3725843 L17.771427,39.3725843" id="Stroke-265" stroke="#000000" stroke-width="0.23"></path>
                    <path d="M15.6166629,40.632764 L17.7721685,40.632764" id="Stroke-267" stroke="#000000" stroke-width="0.23"></path>
                    <path d="M15.3504382,41.888 L17.7827978,41.8855281" id="Stroke-269" stroke="#000000" stroke-width="0.23"></path>
                    <path d="M15.3510562,34.7486292 L9.68296629,43.0616629" id="Stroke-273" stroke="#000000" stroke-width="0.23"></path>
                    <path d="M13.7204607,34.6895506 L4.02192135,42.4179775" id="Stroke-275" stroke="#000000" stroke-width="0.23"></path>
                    <path d="M8.73857303,33.3232022 L8.26025843,27.1755618" id="Stroke-277" stroke="#000000" stroke-width="0.23"></path>
                    <path d="M8.12059551,33.2966292 L7.81407865,26.9722472" id="Stroke-279" stroke="#000000" stroke-width="0.23"></path>
                    <path d="M8.47964045,44.8451461 C5.74323596,42.0864944 1.90435955,33.9946966 6.37357303,26.0190787" id="Stroke-281" stroke="#000000" stroke-width="0.23"></path>
                    <path d="M25.3370787,23.1868876 L20.3982022,21.748236" id="Stroke-287" stroke="#000000" stroke-width="0.23"></path>
                    <path d="M58.7114494,46.9199438 L57.0280787,47.876573 C57.0280787,47.876573 57.5360562,47.9853371 58.0539213,47.6911798 C58.3777416,47.5082584 58.6570674,47.133764 58.7114494,46.9199438" id="Fill-293" fill="#FFFFFF"></path>
                    <polygon id="Fill-295" fill="#FFFFFF" points="8.80914607 47.9857079 8.66824719 47.5073933 8.96116854 47.5073933 8.66824719 47.5073933 8.81161798 47.9857079"></polygon>
                    <polygon id="Fill-297" fill="#FFFFFF" points="9.63773034 48.5469551 9.49188764 48.0674045 9.4931236 48.0674045"></polygon>
                    <polygon id="Fill-299" fill="#FFFFFF" points="9.86650562 47.9857079 9.72437079 47.5073933 10.0234719 47.5073933 9.72560674 47.5073933 9.86774157 47.9857079"></polygon>
                    <polygon id="Fill-301" fill="#FFFFFF" points="10.0373146 48.5469551 9.95079775 48.2540337 10.0385506 48.5469551"></polygon>
                    <polygon id="Fill-303" fill="#FFFFFF" points="10.5544382 48.0677753 10.5544382 48.0677753 10.6063483 48.2531685"></polygon>
                    <polygon id="Fill-305" fill="#FFFFFF" points="10.9274494 47.9857079 10.7828427 47.5073933 11.0807079 47.5073933 10.7853146 47.5073933 10.9299213 47.9857079"></polygon>
                    <polygon id="Fill-307" fill="#FFFFFF" points="11.0964045 48.5469551 10.9517978 48.0674045 11.0976404 48.5469551"></polygon>
                    <mask id="mask-2" fill="white">
                        <use xlink:href="#path-1"></use>
                    </mask>
                    <g id="Clip-310"></g>
                    <polygon id="Fill-309" fill="#000000" mask="url(#mask-2)" points="19.0460674 18.8495506 19.1807865 18.8495506 19.1807865 18.562809 19.0460674 18.562809"></polygon>
                    <polygon id="Fill-311" fill="#FFFFFF" mask="url(#mask-2)" points="6.46639326 25.404191 6.27729213 25.6489101 6.06594382 25.488236 6.25380899 25.238573"></polygon>
                    <path d="M56.3324831,48.4250899 L56.3337191,49.0405955 C55.950573,49.0405955 55.7293371,48.9911573 55.7293371,48.9911573 L55.7293371,48.3286854 C55.979,48.3991348 56.2064157,48.4189101 56.3324831,48.4250899 L56.3324831,48.4250899 Z M56.6488876,48.4250899 C56.6488876,48.4250899 56.9751798,48.4152022 57.2878764,48.3645281 L57.2854045,48.9244157 C57.133382,48.9652022 56.8701236,49.025764 56.6488876,49.028236 L56.6488876,48.4250899 Z M55.4141685,48.9404831 C54.3697865,48.6401461 54.1052921,47.6909326 54.877764,47.3238539 C54.877764,47.3238539 54.8443933,47.8825056 55.4141685,48.1976742 L55.4141685,48.9404831 Z M57.5993371,48.2965506 C57.6809101,48.2730674 58.179,48.1420562 58.617764,47.734191 C58.617764,47.734191 58.3334944,48.5103708 57.5993371,48.8181236 L57.5993371,48.2965506 Z M53.9668652,48.6043034 L51.5493371,48.6043034 L51.5493371,47.9949775 L50.7138315,47.9949775 L50.7138315,48.6043034 L48.6114719,48.6043034 L48.6114719,47.9949775 L47.7796742,47.9949775 L47.7796742,48.6043034 L45.6760787,48.6043034 L45.6760787,47.9949775 L44.841809,47.9949775 L44.841809,48.6043034 L42.7419213,48.6043034 L42.7419213,47.9949775 L41.9064157,47.9949775 L41.9064157,48.6043034 L39.8040562,48.6043034 L39.8040562,47.9949775 L38.9710225,47.9949775 L38.9710225,48.6043034 L36.8698989,48.6043034 L36.8698989,47.9949775 L36.0331573,47.9949775 L36.0331573,48.6043034 L33.9332697,48.6043034 L33.9332697,47.9949775 L33.097764,47.9949775 L33.097764,48.6043034 L30.9978764,48.6043034 L30.9978764,47.9949775 L30.1636067,47.9949775 L30.1636067,48.6043034 L28.0624831,48.6043034 L28.0624831,47.9949775 L27.2269775,47.9949775 L27.2269775,48.6043034 L25.124618,48.6043034 L25.124618,47.9949775 L24.2903483,47.9949775 L24.2903483,48.6043034 L22.1904607,48.6043034 L22.1904607,47.9949775 L21.356191,47.9949775 L21.356191,48.6043034 L19.2525955,48.6043034 L19.2525955,47.9949775 L18.4183258,47.9949775 L18.4183258,48.6043034 L16.3172022,48.6043034 L16.3172022,47.9949775 L15.4829326,47.9949775 L15.4829326,48.6043034 L13.381809,48.6043034 L13.381809,47.9949775 L12.5475393,47.9949775 L12.5475393,48.6043034 L12.1334944,48.6043034 L11.8652921,47.7032921 L53.9755169,47.7032921 C53.9755169,47.7032921 54.026191,47.7008202 54.026191,47.7032921 C54.026191,48.1272247 54.0509101,48.3138539 54.274618,48.6043034 L53.9668652,48.6043034 Z M11.4809101,48.5919438 L11.3523708,48.1531798 L11.6279888,48.1531798 L11.760236,48.5919438 L11.4809101,48.5919438 Z M11.0693371,48.5919438 L10.9407978,48.1531798 L11.2164157,48.1531798 L11.347427,48.5919438 L11.0693371,48.5919438 Z M10.7591124,47.5846404 L11.0334944,47.5846404 L11.1657416,48.0221685 L10.8864157,48.0221685 L10.7591124,47.5846404 Z M10.4278764,48.5919438 L10.300573,48.1531798 L10.577427,48.1531798 L10.7084382,48.5919438 L10.4278764,48.5919438 Z M10.0187753,48.5919438 L9.889,48.1531798 L10.164618,48.1531798 L10.2968652,48.5919438 L10.0187753,48.5919438 Z M9.70607865,47.5846404 L9.98169663,47.5846404 L10.1139438,48.0221685 L9.83585393,48.0221685 L9.70607865,47.5846404 Z M9.37607865,48.5919438 L9.25001124,48.1531798 L9.52439326,48.1531798 L9.6578764,48.5919438 L9.37607865,48.5919438 Z M8.96574157,48.5919438 L8.8384382,48.1531798 L9.11405618,48.1531798 L9.24506742,48.5919438 L8.96574157,48.5919438 Z M8.65551685,47.5846404 L8.93113483,47.5846404 L9.06214607,48.0221685 L8.78158427,48.0221685 L8.65551685,47.5846404 Z M9.34147191,47.5846404 L9.47495506,48.0221685 L9.19439326,48.0221685 L9.06708989,47.5846404 L9.34147191,47.5846404 Z M10.3945056,47.5846404 L10.5267528,48.0221685 L10.2449551,48.0221685 L10.1176517,47.5846404 L10.3945056,47.5846404 Z M11.4450674,47.5846404 L11.5773146,48.0221685 L11.2992247,48.0221685 L11.1694494,47.5846404 L11.4450674,47.5846404 Z M12.5030449,46.7417191 L13.3348427,46.7417191 L13.3348427,46.1336292 L12.5030449,46.1336292 L12.5030449,46.7417191 Z M9.92978652,44.9396966 L9.78641573,43.3366629 L14.7710225,44.0077865 L14.5324831,45.2523933 L9.92978652,44.9396966 Z M10.0682135,46.3350899 L9.83338202,45.534191 L10.3252921,45.534191 L10.5625955,46.3350899 L10.0682135,46.3350899 Z M16.0823708,44.1820562 L15.9427079,45.3475618 L14.7549551,45.2672247 L14.9823708,44.0349775 L16.0823708,44.1820562 Z M15.4483258,46.7417191 L16.2813596,46.7417191 L16.2813596,46.1336292 L15.4483258,46.1336292 L15.4483258,46.7417191 Z M16.2937191,44.2104831 L17.4221461,44.3625056 L17.3986629,45.4464382 L16.1713596,45.3623933 L16.2937191,44.2104831 Z M16.1886629,34.3611573 L16.1886629,33.9347528 L17.6532697,33.9347528 L17.6421461,34.3883483 C17.2540562,34.7059888 16.3678764,34.5811573 16.1886629,34.3611573 L16.1886629,34.3611573 Z M16.0452921,34.3611573 C15.6819213,34.7245281 14.729,34.5873371 14.5423708,34.3611573 L14.5423708,33.9372247 L16.0452921,33.9347528 L16.0452921,34.3611573 Z M14.400236,34.3611573 C14.0578764,34.7245281 13.1655169,34.5873371 12.9912472,34.3611573 L12.9912472,33.9372247 L14.400236,33.9347528 L14.400236,34.3611573 Z M12.8565281,34.3586854 C12.8565281,34.3586854 12.8243933,34.4365506 12.6031573,34.4365506 C11.7898989,34.4365506 11.6885506,33.9372247 11.6885506,33.9372247 L12.8565281,33.9347528 L12.8565281,34.3586854 Z M17.4530449,27.8723933 L17.4530449,27.9576742 C17.2009101,28.1418315 16.5891124,28.1603708 16.3369775,27.961382 L16.3345056,27.6536292 L16.269,27.9527303 C16.0366404,28.1294719 15.4891124,28.0627303 15.3222584,27.8921685 C15.1121461,27.9959888 14.7438315,27.8439663 14.5819213,27.6474494 L18.7050674,27.6474494 L18.7050674,27.8723933 L17.4530449,27.8723933 Z M18.4442809,18.7646404 L18.4442809,19.0452022 C18.2539438,19.024191 18.0772022,18.9722809 18.0203483,18.8832921 L18.0203483,18.6138539 L19.0424831,18.6138539 L19.0424831,18.7646404 L18.4442809,18.7646404 Z M17.9165281,18.8832921 C17.7397865,19.0983483 17.1181011,19.0748652 16.8956292,18.8832921 L16.8956292,18.6138539 L17.9165281,18.6138539 L17.9165281,18.8832921 Z M18.3923708,31.5790225 L18.3923708,28.3000337 L18.6519213,28.3000337 L18.7050674,28.3000337 L18.7075393,31.5790225 L18.3923708,31.5790225 Z M19.1685506,32.0956517 C19.1685506,32.0956517 19.5479888,32.1290225 19.760573,31.9250899 C19.8866404,32.0746404 20.1894494,32.3502584 20.7307978,32.3502584 L20.7307978,32.8162135 L21.5527079,32.8162135 C21.7072022,32.9978989 22.0681011,33.3377865 22.7145056,33.5936292 L18.3923708,33.5936292 L18.3923708,33.0992472 C18.8373146,33.0040787 19.1685506,32.6209326 19.1685506,32.0956517 L19.1685506,32.0956517 Z M18.3095618,14.485764 C18.1501236,14.595764 17.6038315,14.595764 17.479,14.4573371 L17.479,14.2311573 L19.1116966,14.2311573 L19.1079888,14.4635169 C18.991809,14.6019438 18.4875393,14.6180112 18.3095618,14.485764 L18.3095618,14.485764 Z M17.3986629,14.4363258 C17.1032697,14.5005955 16.8906854,14.2509326 16.8721461,14.2311573 L17.3986629,14.2311573 L17.3986629,14.4363258 Z M20.2710225,27.6474494 L20.2685506,27.9527303 C20.1251798,28.0676742 19.8545056,28.1047528 19.6048427,28.0849775 L19.6048427,27.8723933 L19.2155169,27.8723933 L19.2142809,27.6474494 L20.2710225,27.6474494 Z M20.3587753,27.6474494 L21.4649551,27.6474494 L21.4624831,27.9527303 C21.2165281,28.1480112 20.5849551,28.1356517 20.3587753,27.9527303 L20.3587753,27.6474494 Z M22.4809101,27.6474494 L22.4809101,27.8723933 C22.3437191,28.0577865 21.796191,28.1381236 21.5527079,27.9527303 L21.550236,27.6474494 L22.4809101,27.6474494 Z M22.5525955,27.6536292 L23.2039438,27.6536292 C22.9950674,27.8971124 22.6527079,27.9403708 22.5525955,27.8686854 L22.5525955,27.6536292 Z M24.1148427,32.8656517 L24.1148427,33.4663258 C24.1148427,33.4663258 24.0616966,33.5775618 23.6834944,33.5775618 C22.2992247,33.5775618 22.1286629,32.8668876 22.1286629,32.8668876 L24.1148427,32.8656517 Z M24.3051798,32.8668876 L26.4458539,32.8619438 L26.4458539,33.4675618 C26.0985506,33.818573 25.3779888,33.8395843 24.8564157,33.7221685 L24.8564157,33.7073371 L24.8564157,33.7221685 C24.6327079,33.6640787 24.3855169,33.5676742 24.3051798,33.4725056 L24.3051798,32.8668876 Z M26.6473146,32.8668876 L28.7867528,32.8619438 L28.7867528,33.4675618 C28.2688876,33.9866629 26.910573,33.7901461 26.6473146,33.4725056 L26.6473146,32.8668876 Z M23.2237191,34.3586854 L23.2237191,33.9347528 L24.3904607,33.9372247 C24.3904607,33.9372247 24.2903483,34.4365506 23.4795618,34.4365506 C23.254618,34.4365506 23.2237191,34.3586854 23.2237191,34.3586854 L23.2237191,34.3586854 Z M21.6800112,34.3611573 L21.6800112,33.9347528 L23.089,33.9372247 L23.089,34.3611573 C22.9134944,34.5873371 22.0211348,34.7245281 21.6800112,34.3611573 L21.6800112,34.3611573 Z M20.0349551,34.3611573 L20.0349551,33.9347528 L21.5391124,33.9372247 L21.5391124,34.3611573 C21.3524831,34.5873371 20.3983258,34.7245281 20.0349551,34.3611573 L20.0349551,34.3611573 Z M18.3923708,34.3611573 L18.3923708,33.9347528 L19.8940562,33.9347528 L19.8940562,34.3611573 C19.7049551,34.5873371 18.7557416,34.7245281 18.3923708,34.3611573 L18.3923708,34.3611573 Z M18.3824831,46.7417191 L19.2179888,46.7417191 L19.2179888,46.1336292 L18.3824831,46.1336292 L18.3824831,46.7417191 Z M21.3191124,46.7417191 L22.154618,46.7417191 L22.154618,46.1336292 L21.3191124,46.1336292 L21.3191124,46.7417191 Z M28.287427,44.4873371 L27.9982135,46.1225056 C27.5285506,46.0903708 27.0329326,46.0619438 26.5088876,46.029809 L26.7869775,44.5244157 L26.5645056,44.5244157 L26.1912472,46.0063258 C25.619,45.9717191 25.0282135,45.9309326 24.4349551,45.8975618 L24.6772022,34.4501461 L24.4930449,34.4501461 L24.0678764,45.8716067 C23.8787753,45.8580112 23.693382,45.8505955 23.5067528,45.8345281 L24.2643933,34.4501461 L24.0765281,34.4501461 L23.1248427,45.8110449 C21.1979888,45.6899213 19.4132697,45.5737416 18.3923708,45.5094719 L18.3923708,34.8295843 L22.2164157,34.8295843 C22.7145056,34.8295843 23.2459663,34.7925056 23.7440562,34.6676742 C24.3855169,34.505764 24.6512472,34.1807079 24.7686629,33.9743034 L25.1270899,33.9743034 C25.3001236,33.9792472 25.4743933,33.9940787 25.6437191,33.9940787 L30.100573,33.9940787 L29.8879888,46.2436292 C29.4529326,46.2164382 28.9350674,46.1830674 28.3306854,46.1410449 L28.4950674,44.4873371 L28.287427,44.4873371 Z M28.973382,32.8656517 L29.2576517,32.8656517 C29.606191,33.1301461 29.9040562,33.3587978 30.1079888,33.517 L30.1030449,33.7827303 C29.6123708,33.7839663 29.1229326,33.6517191 28.973382,33.4725056 L28.973382,32.8656517 Z M30.1203483,32.8644157 L30.1166404,33.0189101 L29.9065281,32.8644157 L30.1203483,32.8644157 Z M29.7903483,24.2448652 L29.7878764,23.9235169 L31.4749551,23.9235169 L31.4737191,24.2448652 L29.7903483,24.2448652 Z M29.661809,24.3573371 C29.3145056,24.6428427 28.4320337,24.6527303 28.0575393,24.3573371 L28.0538315,23.9235169 L29.661809,23.9235169 L29.661809,24.3573371 Z M27.927764,24.3684607 C27.5730449,24.6378989 26.7770899,24.5167753 26.5781011,24.2522809 L26.5781011,23.9235169 L27.927764,23.9235169 L27.927764,24.3684607 Z M26.471809,24.2448652 C26.3272022,24.3499213 25.8328202,24.2930674 25.5250674,23.9334045 L26.471809,23.9334045 L26.471809,24.2448652 Z M31.4625955,29.3876742 L31.0769775,29.3876742 L31.0769775,24.8035169 L31.4724831,24.8035169 L31.4625955,29.3876742 Z M32.4229326,32.8668876 L32.4229326,33.4725056 C32.2511348,33.6776742 31.6343933,33.8247528 31.0769775,33.7703708 L31.0769775,32.8656517 L32.4229326,32.8668876 Z M32.6095618,32.8619438 L34.750236,32.8668876 L34.750236,33.4725056 C34.4845056,33.791382 33.1286629,33.9866629 32.6095618,33.4675618 L32.6095618,32.8619438 Z M34.9504607,32.8619438 L37.0911348,32.8668876 L37.0911348,33.4725056 C36.8229326,33.791382 35.4683258,33.9866629 34.9504607,33.4675618 L34.9504607,32.8619438 Z M37.2814719,32.8656517 L39.2664157,32.8668876 C39.2664157,32.8668876 39.0995618,33.5775618 37.7140562,33.5775618 C37.334618,33.5775618 37.2814719,33.4663258 37.2814719,33.4663258 L37.2814719,32.8656517 Z M50.6149551,35.5130674 L50.8572022,35.5130674 L50.8534944,35.7009326 L50.6149551,35.5130674 Z M49.0996742,34.3117191 L50.809,34.3117191 L50.809,34.918573 C50.6619213,35.0631798 50.4481011,35.1459888 50.2107978,35.195427 L49.0996742,34.3117191 Z M48.6683258,34.9210449 L48.6683258,34.4476742 C49.0143933,34.7294719 49.3345056,34.9927303 49.6249551,35.2325056 C49.1960787,35.2065506 48.7993371,35.0780112 48.6683258,34.9210449 L48.6683258,34.9210449 Z M48.4829326,34.918573 C47.9638315,35.4352022 46.6104607,35.2423933 46.3434944,34.9210449 L46.3434944,34.315427 L48.4829326,34.3117191 L48.4829326,34.918573 Z M46.1420337,34.918573 C45.6254045,35.4352022 44.2695618,35.2423933 44.0038315,34.9210449 L44.0038315,34.315427 L46.1420337,34.3117191 L46.1420337,34.918573 Z M43.8097865,34.9123933 C43.8097865,34.9123933 43.7566404,35.0273371 43.3796742,35.0273371 C41.9954045,35.0273371 41.8260787,34.315427 41.8260787,34.315427 L43.8097865,34.315427 L43.8097865,34.9123933 Z M50.5630449,26.2718315 L50.560573,25.9504831 L52.2476517,25.9504831 L52.2476517,26.2718315 L50.5630449,26.2718315 Z M50.4320337,26.3830674 C50.0859663,26.6661011 49.2034944,26.6784607 48.829,26.3830674 L48.8240562,25.9504831 L50.4320337,25.9504831 L50.4320337,26.3830674 Z M48.6967528,26.3904831 C48.3420337,26.6636292 47.5497865,26.5425056 47.3483258,26.2755393 L47.3483258,25.9504831 L48.7004607,25.9504831 L48.6967528,26.3904831 Z M47.2445056,26.2668876 C47.0986629,26.3731798 46.6042809,26.3150899 46.299,25.955427 L47.2445056,25.955427 L47.2445056,26.2668876 Z M52.240236,31.2811573 L51.8373146,31.2811573 L51.8373146,26.8267753 L52.2167528,26.8267753 L52.2451798,26.8267753 L52.240236,31.2811573 Z M53.9458539,34.315427 L53.9458539,34.9210449 C53.6850674,35.2386854 52.3700112,35.4265506 51.8373146,34.9371124 L51.8373146,34.3117191 L53.9458539,34.315427 Z M54.1337191,34.3117191 L56.2756292,34.315427 L56.2756292,34.9210449 C56.0086629,35.2423933 54.6540562,35.4352022 54.1337191,34.918573 L54.1337191,34.3117191 Z M56.474618,34.3117191 L58.6140562,34.315427 L58.6140562,34.9210449 C58.3483258,35.2423933 56.9949551,35.4352022 56.474618,34.918573 L56.474618,34.3117191 Z M58.8093371,34.315427 L60.790573,34.315427 C60.790573,34.315427 60.6224831,35.0273371 59.2369775,35.0273371 C58.8600112,35.0273371 58.8093371,34.9123933 58.8093371,34.9123933 L58.8093371,34.315427 Z M9.19068539,46.3350899 L8.95338202,45.534191 L9.44776404,45.534191 L9.68383146,46.3350899 L9.19068539,46.3350899 Z M8.7642809,43.2031798 L9.37978652,43.2835169 L9.50338202,44.9100337 L8.85326966,44.8655393 L8.7642809,43.2031798 Z M8.30574157,46.3350899 L8.06720225,45.534191 L8.56034831,45.534191 L8.79641573,46.3350899 L8.30574157,46.3350899 Z M16.7893371,18.8931798 C16.7263034,18.9327303 16.626191,18.9389101 16.5384382,18.9389101 C16.2393371,18.9389101 15.8191124,18.7349775 15.8191124,18.6138539 L16.7893371,18.6138539 L16.7893371,18.8931798 Z M19.4009101,14.2311573 L20.1906854,14.2311573 L20.1906854,14.4573371 C20.0460787,14.6217191 19.514618,14.6081236 19.4009101,14.4573371 L19.4009101,14.2311573 Z M20.2784382,14.2311573 L21.0682135,14.2311573 L21.0682135,14.4573371 C20.9334944,14.6081236 20.3797865,14.5920562 20.2772022,14.4573371 L20.2784382,14.2311573 Z M21.1448427,14.2311573 L21.6676517,14.2311573 C21.6491124,14.2509326 21.437764,14.5005955 21.1448427,14.4363258 L21.1448427,14.2311573 Z M19.4454045,18.6138539 L20.4650674,18.6138539 L20.4650674,18.8832921 C20.3884382,19.0007079 20.1140562,19.0587978 19.8619213,19.0414944 L19.8619213,18.7646404 L19.4454045,18.7646404 L19.4454045,18.6138539 Z M20.5688876,18.6138539 L21.5922584,18.6138539 L21.5922584,18.8832921 C21.3685506,19.0748652 20.7456292,19.0983483 20.5688876,18.8832921 L20.5688876,18.6138539 Z M21.6973146,18.6138539 L22.6687753,18.6138539 C22.6687753,18.7349775 22.2473146,18.9389101 21.9482135,18.9389101 C21.8592247,18.9389101 21.7615843,18.9327303 21.6973146,18.8931798 L21.6973146,18.6138539 Z M31.1449551,10.8421685 L31.1449551,11.0510449 C30.9743933,11.0287978 30.816191,10.9830674 30.7407978,10.8965506 L30.7407978,10.5764382 L31.8741685,10.5764382 L31.8741685,10.8421685 L31.1449551,10.8421685 Z M30.6382135,10.8965506 C30.4330449,11.1400337 29.7013596,11.1128427 29.4356292,10.8965506 L29.4356292,10.5764382 L30.6382135,10.5764382 L30.6382135,10.8965506 Z M29.2947303,10.8977865 C29.2193371,10.9435169 29.1031573,10.9496966 28.9993371,10.9496966 C28.6470899,10.9496966 28.1564157,10.7161011 28.1514719,10.5764382 L29.2947303,10.5764382 L29.2947303,10.8977865 Z M31.1573146,5.01093258 L31.1573146,4.74149438 L32.0422584,4.74149438 L32.0373146,5.02452809 C31.8482135,5.23958427 31.3637191,5.24205618 31.1573146,5.01093258 L31.1573146,5.01093258 Z M31.0609101,5.01093258 C30.8965281,5.22475281 30.3316966,5.23340449 30.1314719,5.01093258 L30.1314719,4.74149438 L31.0609101,4.74149438 L31.0609101,5.01093258 Z M30.0412472,5.00475281 C29.6568652,5.08632584 29.3800112,4.75508989 29.3688876,4.74149438 L30.0412472,4.74149438 L30.0412472,5.00475281 Z M32.4204607,4.74149438 L33.3486629,4.74149438 L33.3486629,5.01093258 C33.1336067,5.247 32.5959663,5.24205618 32.4204607,5.01093258 L32.4204607,4.74149438 Z M33.4500112,4.74149438 L34.3819213,4.74149438 L34.3819213,5.01093258 C34.1792247,5.23340449 33.6156292,5.22475281 33.4500112,5.01093258 L33.4500112,4.74149438 Z M34.4696742,4.74149438 L35.1383258,4.74149438 C35.1173146,4.76621348 34.8454045,5.08632584 34.4696742,5.00475281 L34.4696742,4.74149438 Z M33.6045056,10.5764382 L33.6045056,10.8965506 C33.4734944,11.0547528 33.1125955,11.0905955 32.8134944,11.0547528 L32.8134944,10.8421685 L32.4550674,10.8421685 L32.4525955,10.5764382 L33.6045056,10.5764382 Z M33.7083258,10.5764382 L34.9121461,10.5764382 L34.9121461,10.8965506 C34.6464157,11.1128427 33.9134944,11.1400337 33.7083258,10.8965506 L33.7083258,10.5764382 Z M35.050573,10.5764382 L36.1938315,10.5764382 C36.1901236,10.7161011 35.6982135,10.9496966 35.3484382,10.9496966 C35.243382,10.9496966 35.1284382,10.9435169 35.050573,10.8977865 L35.050573,10.5764382 Z M33.6514719,23.9235169 L33.647764,24.3684607 C33.3869775,24.5748652 32.823382,24.6205955 32.4130449,24.524191 L32.4130449,24.2448652 L32.2128202,24.2448652 L32.2091124,23.9235169 L33.6514719,23.9235169 Z M33.7800112,23.9235169 L35.3867528,23.9235169 L35.381809,24.3684607 C35.0270899,24.6502584 34.1075393,24.6378989 33.7800112,24.3684607 L33.7800112,23.9235169 Z M36.8649551,23.9235169 L36.8649551,24.2522809 C36.6647303,24.5167753 35.8675393,24.6378989 35.5128202,24.3684607 L35.5103483,23.9235169 L36.8649551,23.9235169 Z M36.9675393,23.9334045 L37.9130449,23.9334045 C37.609,24.2930674 37.1121461,24.3499213 36.9675393,24.2448652 L36.9675393,23.9334045 Z M51.9065281,14.8787978 L51.9065281,15.0852022 C51.7631573,15.0505955 51.6358539,15.0011573 51.5864157,14.9307079 L51.5864157,14.6093596 L52.6357416,14.6093596 L52.6357416,14.8787978 L51.9065281,14.8787978 Z M51.4628202,14.9307079 C51.2576517,15.1778989 50.5247303,15.1494719 50.260236,14.9307079 L50.260236,14.6093596 L51.4628202,14.6093596 L51.4628202,14.9307079 Z M50.1391124,14.9331798 C50.0637191,14.9789101 49.9463034,14.9863258 49.8412472,14.9863258 C49.490236,14.9863258 48.994618,14.7502584 48.994618,14.6093596 L50.1391124,14.6093596 L50.1391124,14.9331798 Z M51.9263034,9.89666292 L51.9263034,9.62722472 L52.7976517,9.62722472 L52.7914719,9.92261798 C52.5924831,10.1216067 52.130236,10.1240787 51.9263034,9.89666292 L51.9263034,9.89666292 Z M51.8311348,9.89666292 C51.6655169,10.1067753 51.1006854,10.1191348 50.9004607,9.89666292 L50.9004607,9.62722472 L51.8311348,9.62722472 L51.8311348,9.89666292 Z M50.809,9.89048315 C50.4270899,9.97205618 50.1539438,9.64329213 50.1403483,9.62722472 L50.809,9.62722472 L50.809,9.89048315 Z M53.1832697,9.62722472 L54.1114719,9.62722472 L54.1114719,9.89666292 C53.8976517,10.1364382 53.3600112,10.1277865 53.1820337,9.89666292 L53.1832697,9.62722472 Z M54.2103483,9.62722472 L55.1410225,9.62722472 L55.1410225,9.89666292 C54.9407978,10.1191348 54.3759663,10.1067753 54.2103483,9.89666292 L54.2103483,9.62722472 Z M55.2312472,9.62722472 L55.8998989,9.62722472 C55.8751798,9.65317978 55.6069775,9.97205618 55.2312472,9.89048315 L55.2312472,9.62722472 Z M54.1423708,14.6093596 L54.1423708,14.9307079 C54.0434944,15.0481236 53.8111348,15.0987978 53.5738315,15.1025056 L53.5738315,14.8787978 L53.1721461,14.8787978 L53.1696742,14.6093596 L54.1423708,14.6093596 Z M54.2449551,14.6093596 L55.4450674,14.6093596 L55.4450674,14.9307079 C55.1830449,15.1494719 54.4488876,15.1778989 54.2449551,14.9307079 L54.2449551,14.6093596 Z M55.5884382,14.6093596 L56.7304607,14.6093596 C56.7304607,14.7502584 56.2348427,14.9863258 55.8838315,14.9863258 C55.7775393,14.9863258 55.6638315,14.9789101 55.5884382,14.9331798 L55.5884382,14.6093596 Z M54.3129326,25.9504831 L54.3067528,26.3904831 C54.0657416,26.5845281 53.5738315,26.6290225 53.174618,26.5622809 L53.174618,26.2718315 L52.8507978,26.2718315 L52.8458539,25.9504831 L54.3129326,25.9504831 Z M54.437764,25.9504831 L56.0482135,25.9504831 L56.0432697,26.3904831 C55.6860787,26.6747528 54.770236,26.6636292 54.437764,26.3904831 L54.437764,25.9504831 Z M57.5227079,25.9504831 L57.5227079,26.2755393 C57.3237191,26.5425056 56.529,26.6636292 56.1755169,26.3904831 L56.171809,25.9504831 L57.5227079,25.9504831 Z M57.629,25.955427 L58.5745056,25.955427 C58.2692247,26.3150899 57.7723708,26.3731798 57.629,26.2668876 L57.629,25.955427 Z M82.8078764,32.8767753 L81.7882135,33.3637416 L67.8960787,40.198573 L67.8960787,39.9983483 L67.2682135,39.9983483 L67.2682135,40.5125056 L65.1831573,41.5989101 L64.7468652,40.7893596 L64.4094494,40.9537416 L64.8407978,41.7484607 L62.3837191,43.0091348 L62.6136067,43.471382 L55.3140562,47.4449775 C55.2732697,47.2867753 55.2868652,46.8072247 55.8615843,46.5612697 L55.6465281,46.1274494 C55.6465281,46.1274494 54.5020337,46.5909326 54.2832697,46.6539663 L54.2832697,46.6601461 C53.8407978,46.7812697 53.3204607,46.8702584 52.7754045,46.8702584 L51.8373146,46.8702584 L51.8373146,35.5130674 L57.2779888,35.5130674 C58.0170899,35.5130674 58.8093371,35.4636292 59.5484382,35.3078989 C60.709,35.0644157 61.2330449,34.505764 61.3937191,34.3005955 L62.1970899,34.3005955 L62.1970899,33.735764 C62.9386629,33.735764 63.1759663,33.2487978 63.1759663,33.2487978 L57.5128202,33.2487978 L57.5128202,33.6183483 L51.8373146,33.6183483 L51.8373146,32.8743034 C52.4268652,32.8038539 52.8915843,32.388573 52.8915843,31.8163258 C52.8915843,31.8163258 53.6566404,31.8917191 53.6566404,31.2811573 L52.9113596,31.2811573 L52.8582135,26.8267753 L56.2830449,26.8267753 C57.930573,26.8267753 58.7079888,26.202618 58.8130449,25.9504831 L59.4569775,25.9504831 L59.4569775,25.515427 C60.2109101,25.515427 60.377764,25.1928427 60.377764,25.1928427 L55.7367528,25.1928427 L55.7367528,25.5648652 L52.8421461,25.5648652 L52.7432697,17.375427 L53.0596742,17.375427 C53.5540562,17.375427 53.503382,16.9304831 53.503382,16.9304831 L53.1894494,16.9304831 L53.174618,15.3336292 L55.5711348,15.3336292 C56.6451798,15.3336292 57.0530449,14.6340787 57.0678764,14.6093596 L57.2792247,14.6093596 L57.2792247,14.4449775 C57.7006854,14.4449775 57.7723708,14.2867753 57.7723708,14.2867753 L53.1672022,14.2867753 L53.1301236,10.2538539 L54.7232697,10.2538539 C55.621809,10.2538539 56.0309101,9.72733708 56.1013596,9.62722472 L56.2978764,9.62722472 L56.2978764,9.4764382 C56.6006854,9.4764382 56.7527079,9.30711236 56.7527079,9.30711236 L53.1214719,9.30711236 L53.0856292,4.95037079 L52.8693371,4.95037079 L52.8013596,9.30464045 L52.6691124,9.30711236 L49.3011348,9.30711236 C49.3011348,9.30711236 49.4531573,9.4764382 49.7559663,9.4764382 L49.7559663,9.62722472 L49.9883258,9.62722472 C50.0315843,9.76441573 50.257764,10.2538539 51.3849551,10.2538539 L52.7852921,10.2538539 L52.7234944,14.2867753 L47.950236,14.2867753 C47.950236,14.2867753 48.0219213,14.4449775 48.4458539,14.4449775 L48.4458539,14.6093596 L48.6584382,14.6093596 C48.6732697,14.6340787 49.0798989,15.3336292 50.1539438,15.3336292 L52.2612472,15.3336292 L52.2612472,16.9304831 L51.7767528,16.9304831 C51.7767528,17.4137416 52.2031573,17.375427 52.2031573,17.375427 L52.2587753,17.375427 L52.2488876,25.5648652 L49.130573,25.5648652 L49.130573,25.1928427 L44.4920337,25.1928427 C44.4920337,25.1928427 44.6551798,25.515427 45.4103483,25.515427 L45.4103483,25.9504831 L46.0579888,25.9504831 C46.161809,26.202618 46.9429326,26.8267753 48.5892247,26.8267753 L51.0203483,26.8267753 L50.9375393,31.2811573 L49.6212472,31.2811573 C49.6212472,31.2811573 49.6088876,31.8212697 50.2503483,31.8212697 L50.9276517,31.8212697 L50.8930449,33.6381236 L48.2431573,33.6381236 L43.3598989,29.775764 L43.2313596,29.9240787 C43.1868652,29.9290225 45.557427,31.8892472 47.6832697,33.6381236 L45.1001236,33.6381236 L45.1001236,33.2722809 L39.4456292,33.2722809 C39.4456292,33.2722809 39.6841685,33.7580112 40.4269775,33.7580112 L40.4269775,34.3055393 L41.1425955,34.3055393 C41.3304607,34.5156517 41.9101236,35.0644157 43.0706854,35.3078989 C43.8097865,35.4636292 44.5995618,35.5130674 45.3411348,35.5130674 L49.9673146,35.5130674 C50.370236,35.8455393 50.6891124,36.1038539 50.8448427,36.2299213 L50.6458539,46.8702584 L49.2801236,46.8702584 L49.4136067,45.6800337 L49.1886629,45.6800337 L48.9736067,46.8702584 L47.8031573,46.8702584 L48.0342809,45.6614944 L47.810573,45.6614944 L47.4954045,46.8702584 L46.3484382,46.8702584 L46.6932697,45.6466629 L46.4695618,45.6466629 L46.0369775,46.8702584 L44.5797865,46.8702584 L44.8479888,37.915764 L44.5525955,37.915764 L44.2114719,46.8702584 L43.7912472,46.8702584 L44.2769775,37.9108202 L43.9815843,37.9108202 L43.4204607,46.8702584 L43.0706854,46.8702584 C43.0706854,46.8702584 42.7048427,46.8245281 42.4984382,47.1755393 L32.3870899,47.1755393 C32.3870899,47.1755393 31.9730449,46.4339663 31.0769775,46.3350899 L31.0769775,33.9940787 L35.7538315,33.9940787 C36.4929326,33.9940787 37.2814719,33.9483483 38.0242809,33.7901461 C39.1057416,33.5639663 39.5865281,33.0535169 39.7583258,32.8162135 L40.6692247,32.8162135 L40.6692247,32.3502584 C41.4132697,32.3502584 41.7284382,31.8286854 41.7284382,31.8286854 L35.9911348,31.8286854 L35.9911348,32.2081236 L31.0769775,32.2081236 L31.0769775,31.0908202 C31.9273146,31.0376742 32.2968652,30.6261011 32.2968652,30.0353146 C32.2968652,30.0353146 33.1187753,30.1280112 33.1187753,29.3876742 L32.2820337,29.3876742 L32.2214719,24.8035169 L35.6215843,24.8035169 C37.2728202,24.8035169 38.0527079,24.1756517 38.1528202,23.9235169 L38.7942809,23.9235169 L38.7942809,23.4909326 C39.5506854,23.4909326 39.7138315,23.1683483 39.7138315,23.1683483 L35.0752921,23.1683483 L35.0752921,23.5416067 L32.2054045,23.5416067 L32.0756292,13.8578989 L32.2968652,13.8578989 C32.7912472,13.8578989 32.740573,13.4092472 32.740573,13.4092472 L32.4760787,13.4092472 L32.4587753,11.2895843 L35.0357416,11.2895843 C36.0825955,11.2895843 36.4892247,10.6320562 36.5238315,10.5764382 L36.7425955,10.5727303 L36.7413596,10.4108202 C37.1652921,10.4108202 37.2382135,10.252618 37.2382135,10.252618 L32.4501236,10.252618 L32.411809,5.3681236 L33.9888876,5.3681236 C34.8800112,5.3681236 35.2915843,4.84655056 35.3657416,4.74149438 L35.5350674,4.74149438 L35.5350674,4.59070787 C35.8403483,4.59070787 35.9911348,4.42138202 35.9911348,4.42138202 L32.4019213,4.42138202 L32.3660787,0.0646404494 L32.1052921,0.0646404494 L32.0459663,4.41891011 L31.9001236,4.42138202 L28.5309101,4.42138202 C28.5309101,4.42138202 28.6829326,4.59070787 28.9882135,4.59070787 L28.9882135,4.74149438 L29.1464157,4.74149438 C29.221809,4.84655056 29.6309101,5.3681236 30.5207978,5.3681236 L32.0323708,5.3681236 L31.9668652,10.252618 L27.130573,10.252618 C27.130573,10.252618 27.2022584,10.4108202 27.6249551,10.4108202 L27.6249551,10.5727303 L27.8227079,10.5739663 C27.8573146,10.6320562 28.2627079,11.2895843 29.3120337,11.2895843 L31.4996742,11.2895843 L31.4959663,13.4092472 L31.0164157,13.4092472 C31.0164157,13.8962135 31.4403483,13.8578989 31.4403483,13.8578989 L31.4947303,13.8578989 L31.4749551,23.5416067 L28.3578764,23.5416067 L28.3578764,23.1683483 L23.720573,23.1683483 C23.720573,23.1683483 23.8837191,23.4909326 24.6388876,23.4909326 L24.6388876,23.9235169 L25.316191,23.9235169 C25.4175393,24.1756517 26.197427,24.8035169 27.8486629,24.8035169 L30.2587753,24.8035169 L30.1796742,29.3876742 L28.6643933,29.3876742 C28.6643933,29.3876742 28.6532697,29.9265506 29.2934944,29.9265506 L30.1710225,29.9265506 L30.1314719,32.2081236 L29.0228202,32.2081236 L23.7700112,28.3296966 L23.6192247,28.4903708 C23.5747303,28.4953146 26.3828202,30.658236 28.4036067,32.2081236 L25.4138315,32.2081236 L25.4138315,31.8286854 L19.8149551,31.8286854 C19.8557416,31.7631798 19.9014719,31.6914944 19.9014719,31.5790225 L19.2587753,31.5790225 L19.2216966,28.3000337 L21.6256292,28.3000337 C22.8479888,28.3000337 23.3843933,27.795764 23.3843933,27.6548652 L23.3819213,27.6474494 L23.804618,27.6474494 L23.804618,27.5522809 C24.0345056,27.5522809 24.1655169,27.355764 24.1655169,27.355764 L19.210573,27.355764 L19.1351798,20.7223933 L19.3415843,20.7223933 C19.761809,20.7223933 19.7210225,20.345427 19.7210225,20.345427 L19.4330449,20.345427 L19.4231573,19.2207079 L21.6824831,19.2207079 C22.5736067,19.2207079 22.9196742,18.6645281 22.9481011,18.6138539 L23.1347303,18.6138539 L23.1347303,18.501382 C23.4943933,18.501382 23.5549551,18.3444157 23.5549551,18.3444157 L19.4157416,18.3444157 L19.3860787,14.7045281 L20.7357416,14.7045281 C21.3611348,14.7045281 21.7183258,14.3893596 21.8592247,14.2311573 L22.0483258,14.2311573 L22.0483258,14.1050899 C22.3091124,14.1050899 22.4364157,13.9592472 22.4364157,13.9592472 L19.377427,13.9592472 L19.347764,10.3304831 L19.1722584,10.3304831 L19.1166404,13.9580112 L18.9819213,13.9592472 L16.1169775,13.9592472 C16.1169775,13.9592472 16.2467528,14.1050899 16.5063034,14.1050899 L16.5063034,14.2311573 L16.6867528,14.2311573 C16.8276517,14.3893596 17.1836067,14.7045281 17.8114719,14.7045281 L19.1042809,14.7045281 L19.0498989,18.3444157 L14.9316966,18.3444157 C14.9316966,18.3444157 14.9922584,18.501382 15.3506854,18.501382 L15.3506854,18.6138539 L15.5385506,18.6138539 C15.5682135,18.6645281 15.9142809,19.2207079 16.8054045,19.2207079 L18.6964157,19.2207079 L18.6976517,20.345427 L18.2514719,20.345427 C18.2514719,20.758236 18.6136067,20.7223933 18.6136067,20.7223933 L18.6976517,20.7223933 L18.7038315,27.355764 L13.6079888,27.355764 C13.6079888,27.355764 13.7340562,27.5522809 13.9676517,27.5522809 L13.9676517,27.6474494 L14.4064157,27.6474494 C14.4645056,27.8217191 15.0021461,28.3000337 16.1565281,28.3000337 L17.7768652,28.3000337 L17.7039438,31.5790225 L16.4321461,31.5790225 C16.4321461,31.5790225 16.4197865,32.0968876 17.0340562,32.0968876 L17.6928202,32.0968876 L17.6656292,33.3105955 L6.41596629,25.8145281 L6.30596629,25.9418315 C6.22562921,25.9702584 15.4198989,32.2538539 17.3727079,33.5936292 L10.301809,33.5936292 C10.4637191,33.8643034 10.880236,33.8593596 10.880236,33.8593596 L10.880236,33.9743034 L11.3103483,33.9743034 C11.427764,34.1807079 11.6922584,34.505764 12.337427,34.6676742 C12.8355169,34.7925056 13.3645056,34.8295843 13.8638315,34.8295843 L17.6322584,34.8295843 L17.4332697,43.8396966 L9.74933708,42.9152022 L8.89405618,33.3229551 L8.61225843,33.3229551 L9.34765169,42.868236 L8.74326966,42.7940787 L8.22911236,33.297 L7.97944944,33.297 L8.349,42.7446404 L0.0285505618,41.7459888 L0.000123595506,42.0302584 L8.36383146,43.1500337 L8.42933708,44.8395843 L6.48641573,44.7048652 L6.67304494,45.2771124 C6.67304494,45.2771124 7.29225843,45.2252022 7.60495506,45.9630674 C7.80517978,46.4339663 7.82742697,46.4895843 7.82742697,46.4895843 L7.92135955,46.745427 L11.5488876,46.745427 L11.6588876,47.1087978 L7.23293258,47.1087978 L7.3948427,47.6056517 C7.3948427,47.6056517 8.19574157,47.5586854 8.4095618,48.0728427 C8.55293258,48.4077865 8.90394382,49.3508202 8.91630337,49.3804831 L55.786191,49.3804831 C55.786191,49.3804831 57.5165281,49.3743034 58.0121461,48.8304831 C58.0121461,48.8304831 57.0592247,50.3432921 54.6898989,50.3432921 L54.0521461,50.3420562 L52.8965281,50.3420562 L52.8965281,49.7352022 L52.0622584,49.7352022 L52.0622584,50.3420562 L49.9611348,50.3420562 L49.9611348,49.7352022 L49.1268652,49.7352022 L49.1268652,50.3420562 L47.0257416,50.3420562 L47.0257416,49.7352022 L46.1914719,49.7352022 L46.1914719,50.3420562 L44.0891124,50.3420562 L44.0891124,49.7352022 L43.2548427,49.7352022 L43.2548427,50.3420562 L41.1537191,50.3420562 L41.1537191,49.7352022 L40.3182135,49.7352022 L40.3182135,50.3420562 L38.2183258,50.3420562 L38.2183258,49.7352022 L37.3840562,49.7352022 L37.3840562,50.3420562 L35.2816966,50.3420562 L35.2816966,49.7352022 L34.447427,49.7352022 L34.447427,50.3420562 L32.3475393,50.3420562 L32.3475393,49.7352022 L31.5107978,49.7352022 L31.5107978,50.3420562 L29.4096742,50.3420562 L29.4096742,49.7352022 L28.5754045,49.7352022 L28.5754045,50.3420562 L26.4730449,50.3420562 L26.4730449,49.7352022 L25.6400112,49.7352022 L25.6400112,50.3420562 L23.5376517,50.3420562 L23.5376517,49.7352022 L22.703382,49.7352022 L22.703382,50.3420562 L20.6010225,50.3420562 L20.6010225,49.7352022 L19.7679888,49.7352022 L19.7679888,50.3420562 L17.6656292,50.3420562 L17.6656292,49.7352022 L16.8301236,49.7352022 L16.8301236,50.3420562 L14.730236,50.3420562 L14.730236,49.7352022 L13.8947303,49.7352022 L13.8947303,50.3420562 L11.6168652,50.3420562 L12.1755169,49.6993596 L9.19068539,49.7018315 L9.73450562,50.3346404 L9.44776404,53.3207079 L54.2560787,53.3207079 L54.2560787,53.315764 L57.5029326,53.315764 C57.5029326,53.315764 57.381809,52.2367753 58.6424831,50.9501461 C59.6584382,49.9144157 59.8376517,49.6363258 60.0403483,49.3261011 C60.4049551,48.7625056 60.7460787,48.0938539 60.8919213,46.1410449 L60.324618,46.1410449 C60.324618,46.1410449 59.5682135,46.1571124 59.1912472,46.6823933 C58.6251798,47.4684607 58.041809,47.817 57.547427,47.9690225 C57.1309101,48.1012697 56.5747303,48.1605955 56.1112472,48.0555393 L65.4291124,42.9819438 L65.9284382,43.995427 L66.2275393,43.8100337 L65.7343933,42.8150899 L66.7787753,42.2453146 L66.8245056,49.4805955 L66.9307978,49.4805955 L67.2916966,42.2601461 L67.8849551,42.2601461 L67.8849551,40.9327303 L81.8660787,33.5614944 L82.8931573,33.0634045 L82.8078764,32.8767753 Z" id="Fill-312" fill="#000000" mask="url(#mask-2)"></path>
                    <polygon id="Fill-314" fill="#FFFFFF" mask="url(#mask-2)" points="4.86051685 32.4783034 4.72085393 32.6612247 4.56141573 32.5413371 4.70355056 32.3571798"></polygon>
                    <path d="M132.480787,53.3229326 L138.740899,53.3229326 L138.739663,53.1536067 C138.740899,53.1536067 137.469101,53.120236 137.507416,50.8559663 C137.507416,50.8559663 137.501236,43.8740562 137.501236,43.8728202 C137.507416,39.0216966 132.599438,39.1959663 132.599438,39.1959663 C130.542809,39.2355169 129.148652,40.4838315 128.806292,40.826191 L128.807528,39.2157416 L122.499213,39.4641685 L122.499213,39.643382 C123.804382,39.7311348 123.69191,41.7049551 123.69191,41.7581011 L123.69191,51.2304607 C123.261798,51.2341685 122.511573,51.2378764 122.511573,51.2168652 C120.40427,51.0969775 120.401798,48.9365281 120.406742,48.8734944 C120.406742,48.8734944 120.35236,44.5056292 120.35236,44.5328202 C120.377079,41.3984382 118.510787,40.3973146 118.535506,40.3738315 C115.006854,38.187427 109.953034,39.6878764 109.953034,39.6878764 C109.953034,39.6878764 108.871573,43.110236 108.846854,43.0855169 C114.213371,40.7334944 115.090899,43.0595618 115.061236,42.9792247 C115.152697,43.2091124 115.167528,43.4142809 115.12427,43.5947303 C114.948764,44.6131573 113.084944,44.8825955 113.062697,44.8825955 C110.851573,45.2756292 109.691011,45.6896742 109.691011,45.6896742 C106.292135,46.849 106.739551,49.7164157 106.739551,49.7436067 C107.321685,53.4292247 112.29764,53.3278764 112.29764,53.3278764 L114.430899,53.3278764 L115.509888,51.1142809 C113.296292,51.5604607 112.612809,50.3516966 112.612809,50.3516966 C111.692022,48.8215843 113.087416,47.9279888 113.087416,47.9279888 C113.631236,47.5052921 115.375169,47.1147303 115.375169,47.1147303 L115.375169,49.3493371 C115.55191,53.4823708 119.95191,53.337764 120.090337,53.3204607 L123.695618,53.3204607 L123.695618,53.3216966 L130.023708,53.3229326 L130.023708,53.1560787 C130.02,53.1560787 128.854494,53.1152921 128.798876,51.1501236 L128.805056,44.7639438 L128.805056,44.7614719 C128.760562,42.3970899 130.708427,42.367427 130.705955,42.3637191 C132.604382,42.3439438 132.465955,44.0285506 132.478315,44.4030449 C132.478315,44.4030449 132.480787,50.8559663 132.479551,50.8584382 L132.526517,50.8584382 L132.480787,50.864618 L132.480787,53.3229326 Z" id="Fill-315" fill="#96151D" mask="url(#mask-2)"></path>
                    <path d="M104.331416,33.0202697 L104.331416,33.1871236 C106.317596,33.9608315 105.577258,35.9136404 105.577258,35.9136404 L101.942315,47.5217303 L97.0318652,33.0524045 L90.1673708,33.0524045 L90.1673708,33.257573 C91.344,33.5257753 91.9174831,35.5749888 91.9174831,35.5749888 L96.4237753,48.1273483 C97.668382,51.6609438 100.003101,52.3580225 100.003101,52.3580225 L102.885348,53.4777978 L109.815348,33.0202697 L104.331416,33.0202697 Z" id="Fill-316" fill="#96151D" mask="url(#mask-2)"></path>
                    <path d="M212.178135,50.8583146 L212.174427,33.055618 L205.793191,33.3040449 L205.793191,33.4832584 C207.097124,33.5722472 206.984652,35.5460674 206.984652,35.5955056 L206.984652,40.2093258 C202.52409,37.3616854 199.285888,41.0522472 199.306899,40.9855056 C197.223079,43.0693258 197.313303,46.3557303 197.291056,46.3347191 C197.291056,49.801573 199.306899,51.5677528 199.306899,51.5677528 C201.959258,54.4265169 205.156674,53.3141573 205.156674,53.3141573 C205.156674,53.3141573 206.539708,50.8410112 206.539708,50.82 C202.595775,51.478764 202.595775,46.3557303 202.618022,46.3347191 C202.618022,41.9359551 204.952742,42.185618 204.974989,42.1621348 C206.984652,42.185618 206.983416,44.4993258 206.983416,44.4152809 L206.985888,44.5969663 L206.985888,53.322809 L206.987124,53.321573 L206.987124,53.322809 L213.428921,53.3277528 L213.428921,53.1559551 C213.426449,53.1559551 212.146,53.2844944 212.178135,50.8583146" id="Fill-317" fill="#96151D" mask="url(#mask-2)"></path>
                    <path d="M193.014775,41.045573 L193.014775,39.2151236 L186.706461,39.4647865 L186.706461,39.642764 C188.009157,39.7305169 187.897921,41.7043371 187.897921,41.7587191 L187.894213,50.1113034 L187.895449,51.2298427 C187.485112,51.2335506 186.639719,51.2372584 186.639719,51.2162472 C184.528708,51.0975955 184.526236,48.9371461 184.533652,48.8741124 C184.533652,48.8741124 184.480506,44.5062472 184.480506,44.5322022 C184.502753,41.3978202 182.637697,40.3966966 182.663652,40.3732135 C179.136236,38.186809 174.08118,39.6872584 174.08118,39.6872584 C174.08118,39.6872584 173.002191,43.1108539 172.972528,43.0848989 C178.341517,40.7341124 179.215337,43.0601798 179.189382,42.9786067 C179.280843,43.2084944 179.293202,43.4136629 179.248708,43.5941124 C179.074438,44.6137753 177.211854,44.8819775 177.187135,44.8819775 C174.977247,45.2762472 173.817921,45.6902921 173.817921,45.6902921 C170.420281,46.848382 170.867697,49.7170337 170.867697,49.7429888 C171.448596,53.4286067 176.422079,53.3272584 176.422079,53.3272584 L178.556573,53.3272584 L179.635562,51.1136629 C177.423202,51.5610787 176.740955,50.3510787 176.740955,50.3510787 C175.821404,48.8209663 177.21309,47.9273708 177.21309,47.9273708 C177.75691,47.5046742 179.504551,47.1141124 179.504551,47.1141124 L179.504551,49.3499551 C179.67882,53.4817528 184.082528,53.3371461 184.214775,53.3210787 L187.897921,53.3210787 L187.897921,53.3223146 L194.264326,53.3223146 L194.264326,53.1566966 C194.203764,53.1604045 192.98264,53.2543371 193.011067,50.8528764 L193.013539,45.1860225 L193.016011,45.1860225 C193.018483,45.2045618 192.840506,41.9725393 197.095899,42.6844494 L197.095899,39.2126517 C197.095899,39.2126517 194.413876,38.3895056 193.014775,41.045573" id="Fill-318" fill="#96151D" mask="url(#mask-2)"></path>
                    <path d="M146.025494,46.8849663 C145.888303,46.9158652 144.050438,46.7502472 144.250663,44.1794607 C144.27291,44.2029438 144.199989,41.8855281 146.030438,41.8855281 C146.030438,41.8855281 147.691562,41.8150787 147.731112,44.1386742 C147.731112,44.1794607 147.956056,46.8849663 146.025494,46.8849663 L146.025494,46.8849663 Z M160.434258,39.1960899 L145.817854,39.1960899 C144.097404,39.2813708 142.170551,39.6113708 140.652798,41.0871011 C140.652798,41.0871011 138.011562,43.6653034 140.278303,46.9306966 C140.296843,46.9306966 141.356056,48.4447416 143.139539,49.0169888 C143.140775,49.0169888 143.158079,49.0169888 143.182798,49.0244045 L143.153135,49.0305843 C143.315045,49.0256404 141.892461,49.1900225 141.267067,49.5620449 C140.919764,49.7845169 140.808528,50.028 140.906169,50.6360899 C141.005045,51.236764 141.542685,53.2019326 143.616618,53.3205843 C145.096056,53.3860899 147.220663,53.1228315 148.34291,53.9558652 C148.34291,53.9558652 149.148753,54.5441798 149.148753,55.526764 C149.148753,56.270809 149.063472,57.7910337 145.962461,57.9517079 C145.817854,57.9504719 143.391674,57.9331685 142.915831,56.2139551 C142.91336,56.2028315 142.662461,54.7468764 144.081337,54.5454157 C144.081337,54.5454157 142.216281,54.1078876 140.637966,54.5454157 C138.501,55.1411461 137.865719,57.1100225 139.068303,58.5177753 C139.051,58.5004719 140.811,60.588 145.559539,60.5533933 C150.343921,60.6819326 155.135719,59.2494607 154.286618,54.4477753 C154.264371,54.4477753 153.711899,51.0229438 148.530775,51.0414831 L145.972348,51.0414831 C145.972348,51.0414831 144.882236,51.1230562 144.661,50.6076629 C144.659764,50.6027191 144.176506,49.8277753 145.690551,49.7746292 L145.690551,49.7746292 L145.967404,49.7437303 C145.967404,49.7437303 150.436618,49.1949663 151.820888,47.2396854 C151.840663,47.2186742 153.936843,44.9012584 151.780101,42.1129438 C151.777629,42.1129438 151.589764,41.8571011 151.446393,41.7359775 L155.287742,41.7359775 C155.282798,43.4885618 155.271674,48.625191 155.290213,48.6610337 C155.280326,53.5158652 160.277292,53.3391236 160.277292,53.3391236 C162.424146,53.2983371 163.845494,51.9375506 164.106281,51.6705843 L164.105045,53.3218202 L170.478865,53.3230562 L170.478865,53.1562022 C169.113135,53.0956404 169.225607,50.906764 169.226843,50.8573258 L169.226843,43.3773258 L169.228079,39.2158652 L162.921,39.4642921 L162.921,39.6435056 C164.226169,39.7312584 164.112461,41.7050787 164.112461,41.7582247 L164.112461,46.1347416 L164.111225,47.7773258 C164.108753,47.7773258 164.108753,47.773618 164.105045,47.7711461 C164.03336,50.466764 162.154708,50.1478876 162.162124,50.1800225 C160.389764,50.1985618 160.434258,48.239573 160.434258,48.239573 L160.434258,39.1960899 Z" id="Fill-319" fill="#96151D" mask="url(#mask-2)"></path>
                    <path d="M214.244528,35.6188652 C214.244528,34.4076292 215.229584,33.4213371 216.442056,33.4213371 C217.653292,33.4213371 218.638348,34.4076292 218.638348,35.6188652 C218.638348,36.8301011 217.653292,37.8151573 216.442056,37.8151573 C215.229584,37.8151573 214.244528,36.8301011 214.244528,35.6188652 M213.892281,35.6188652 C213.892281,37.0241461 215.036775,38.1686404 216.442056,38.1686404 C217.846101,38.1686404 218.990596,37.0241461 218.990596,35.6188652 C218.990596,34.2135843 217.846101,33.0678539 216.442056,33.0678539 C215.036775,33.0678539 213.892281,34.2135843 213.892281,35.6188652" id="Fill-320" fill="#96151D" mask="url(#mask-2)"></path>
                    <path d="M215.889584,35.7806517 L215.889584,37.1364944 L215.471831,37.1364944 L215.471831,34.1318876 L216.54464,34.1318876 C217.04891,34.1318876 217.568011,34.2913258 217.568011,34.8845843 C217.568011,35.2467191 217.354191,35.524809 217.005652,35.6088539 L217.005652,35.6175056 C217.365315,35.7040225 217.413517,35.8980674 217.459247,36.2342472 C217.506213,36.5333483 217.539584,36.8522247 217.648348,37.1364944 L217.202169,37.1364944 C217.166326,36.9572809 217.115652,36.762 217.095876,36.5827865 C217.06127,36.3133483 217.06127,36.0661573 216.925315,35.9153708 C216.804191,35.7806517 216.637337,35.7930112 216.471719,35.7806517 L215.889584,35.7806517 Z M215.879697,35.4222247 L216.568124,35.4222247 C217.029135,35.4012135 217.132955,35.1923371 217.132955,34.9562697 C217.132955,34.7177303 217.029135,34.5088539 216.568124,34.4890787 L215.879697,34.4890787 L215.879697,35.4222247 Z" id="Fill-321" fill="#96151D" mask="url(#mask-2)"></path>
                </g>
            </g>
        </g>
    </g>
</svg>